<?xml version="1.0" encoding="utf-8"?>
<!-- Uploaded to: SVG Repo, www.svgrepo.com, Generator: SVG Repo Mixer Tools -->
<svg width="800px" height="800px" viewBox="-38.33 0 341.323 341.323" xmlns="http://www.w3.org/2000/svg"><defs><style>.a{fill:#ffffff;}.b{fill:#908b8a;}.c{fill:#211715;}.d{fill:#e2e2e2;}</style></defs><path class="a" d="M164.219,135.526l-63.569-5.547c-1.408-6.5-3.546-10.521-4.436-17.417a29.882,29.882,0,0,1,1.509-14.1q.6-1.638,1.17-3.289c4.474-13,4.685-23.743,9.053-36.751a18.856,18.856,0,0,1,7.765-9.959c32.491-20.546,54.242-30.21,89.245-46.1l45.63,32.593C243.1,48.165,239.521,54.292,232.04,67.506c-2.531,4.47-5.1,8.992-8.657,12.7-5.678,5.916-13.411,9.3-20.385,13.616a83.29,83.29,0,0,0-7.678,5.368c-.038-1.718,8.29-.455,11.287.646,2.173.8,4.5,1.816,5.569,3.867a6.383,6.383,0,0,1-.735,6.439c-1.3,1.863-7.044,6.211-11.03,6.951l-1.313.243.293.1c3.958,1.345,5.9,6.351,4.611,10.328s-5.244,6.334-9.2,7.677c-3.2,1.088-13.352,1.088-19.416,1.088-1.586,0-8.683-.566-11.165-1"/><path class="b" d="M10.818,339V305.752c15.213.108,34.458.34,47.707.34,15.17,0,114.941.057,150.367.057,11.165,0,34.06-.327,44.212-.327,0,15.967,0,33.182,0,33.182"/><path class="a" d="M172.712,123.751A162.544,162.544,0,0,1,186.2,107.033a84.121,84.121,0,0,1,8.676-7.849,22.125,22.125,0,0,1,11.288.649c2.173.8,4.5,1.816,5.569,3.867a6.383,6.383,0,0,1-.735,6.439c-1.3,1.863-7.044,6.211-11.03,6.951l-1.31.244.29.1c3.958,1.345,5.9,6.351,4.611,10.328s-5.244,6.334-9.2,7.677c-3.2,1.088-13.352,1.088-19.416,1.088a54.323,54.323,0,0,1-10.811-1.435C167.1,131.417,169.9,127.58,172.712,123.751Z"/><path class="b" d="M16.7,247.228c6.476-10.609,13.1-21.288,17.45-26.757,15.229.062,24.93.249,40.4.249,15.171,0,99.771.359,135.2.359,9.122,0,16.388.23,23.071.213,7.072,12.919,22.124,39.574,29.3,51.754.014,4.386.035,8.356.06,15.068.018,4.966.087,11.638.084,17.593-6.412,0-44.544.442-53.361.442-35.426,0-135.2-.057-150.367-.057-15.85,0-40.279-.332-56.124-.386-.027-6.094.216-13.035.2-18.159q-.031-8.739-.066-17.476C6.3,264.379,11.45,255.827,16.7,247.228Z"/><path class="c" d="M18.771,248.439c3.092-5.063,6.192-10.121,9.4-15.113,2.433-3.787,4.888-7.632,7.677-11.158l-1.7.7c14.818.062,29.635.226,44.454.254q14.051.025,28.1.082,19.963.066,39.927.132,20.327.063,40.654.111c13.23.028,26.456.051,39.686.208,1.947.023,3.9.038,5.843.034L230.74,222.5c7.7,14.054,15.6,28,23.578,41.9q2.838,4.941,5.719,9.858l-.328-1.211c.036,10.887.147,21.774.144,32.661l2.4-2.4c-15.584,0-31.17.294-46.754.408-14.507.107-29.016.03-43.522.025l-59.011-.026-46.456-.02c-18.667-.006-37.332-.213-56-.344q-4.056-.029-8.111-.044l2.4,2.4c-.019-5.6.175-11.205.2-16.808.025-6.275-.041-12.552-.066-18.827L4.6,271.282c4.936-7.476,9.5-15.2,14.167-22.843,1.614-2.644-2.536-5.058-4.144-2.423-4.289,7.028-8.508,14.1-12.977,21.021a13.146,13.146,0,0,0-1.311,2.109,9.822,9.822,0,0,0-.2,3.5q.014,3.469.026,6.939c.016,4.144.058,8.288,0,12.432C.1,296.577-.014,301.141,0,305.706a2.436,2.436,0,0,0,2.4,2.4c20.245.071,40.488.381,60.734.387q21.509.006,43.017.018l59.016.026c15.3.006,30.6.074,45.905.006,16.1-.072,32.2-.322,48.3-.425.961-.006,1.921-.012,2.881-.011a2.435,2.435,0,0,0,2.4-2.4c0-7.563-.073-15.126-.1-22.689q-.019-4.483-.037-8.966a4.756,4.756,0,0,0-.453-2.425c-.258-.482-.555-.946-.831-1.417q-.88-1.507-1.757-3.018-9.077-15.654-17.89-31.458-4.378-7.809-8.7-15.653a2.4,2.4,0,0,0-2.072-1.189c-8.94.016-17.88-.208-26.821-.214q-9.354-.006-18.708-.028-22.892-.048-45.781-.128-21.582-.069-43.166-.142-14.73-.047-29.461-.069c-10.105-.03-20.209-.158-30.313-.218-1.3-.007-2.608-.046-3.909-.02-1.721.035-2.351.87-3.313,2.132-1.227,1.609-2.388,3.269-3.526,4.942-3.009,4.426-5.853,8.964-8.671,13.513q-2.272,3.669-4.517,7.356C13.012,248.66,17.162,251.074,18.771,248.439Z"/><path class="c" d="M22.322,273.863c16.134.061,32.266.385,48.4.568,10.8.123,21.6.124,32.4.13l44.135.026q24.057.014,48.113.022,21.821.006,43.639.1,1.974,0,3.947.007c3.088,0,3.093-4.8,0-4.8-14.162,0-28.323-.1-42.484-.1q-23.581,0-47.162-.02-22.89-.012-45.778-.027c-10.337,0-20.674.026-31.009-.071-16.514-.155-33.027-.467-49.541-.6q-2.328-.019-4.656-.029c-3.089-.011-3.093,4.789,0,4.8Z"/><path class="c" d="M8.418,309.073V339c0,3.089,4.8,3.094,4.8,0V309.073c0-3.088-4.8-3.094-4.8,0Z"/><path class="c" d="M250.7,309.073V339c0,3.089,4.8,3.094,4.8,0V309.073c0-3.088-4.8-3.094-4.8,0Z"/><path class="c" d="M197.448,100.75a24.207,24.207,0,0,1,6.427.8,20.583,20.583,0,0,1,2.881.9,10.072,10.072,0,0,1,2.558,1.454,2.763,2.763,0,0,1,1.032,2.092,4.922,4.922,0,0,1-.9,2.819c-.321.513.227-.2-.035.051-.113.111-.213.239-.323.354-.287.3-.59.581-.9.855a17.658,17.658,0,0,1-2.147,1.673,16.718,16.718,0,0,1-6.271,3.033,2.424,2.424,0,0,0-1.676,2.952,2.449,2.449,0,0,0,2.952,1.677,26.013,26.013,0,0,0,12.429-8,8.61,8.61,0,0,0,.563-9.268c-1.641-2.6-4.682-4-7.533-4.856a30.136,30.136,0,0,0-9.06-1.326c-3.085.063-3.095,4.863,0,4.8Z"/><path class="c" d="M203.745.286c-21.5,9.76-43.066,19.412-63.715,30.9q-8.014,4.457-15.856,9.215-4.263,2.583-8.481,5.239a24.716,24.716,0,0,0-6.793,5.921,25.519,25.519,0,0,0-3.872,8.09c-1.007,3.233-1.824,6.522-2.536,9.831-1.354,6.29-2.37,12.651-4.033,18.872-.98,3.667-2.369,7.173-3.5,10.788a31.813,31.813,0,0,0-1.347,11.348c.434,7,3.223,13.361,4.719,20.13.667,3.015,5.3,1.739,4.629-1.276-1.261-5.7-3.618-11.133-4.374-16.951a28.082,28.082,0,0,1,.355-9.519c.7-3.215,2.045-6.253,3.026-9.387a179.687,179.687,0,0,0,4.35-18.838c.609-3.074,1.257-6.142,2.043-9.176a39.617,39.617,0,0,1,2.935-8.8c2.789-5.2,8.183-7.778,13.03-10.745Q132.086,41.177,140,36.7c9.671-5.454,19.542-10.538,29.542-15.359,12.112-5.841,24.38-11.351,36.622-16.909a2.417,2.417,0,0,0,.861-3.284,2.457,2.457,0,0,0-3.283-.861Z"/><path class="c" d="M133.292,78.636q9.823,4.215,19.841,7.952a2.42,2.42,0,0,0,2.952-1.676,2.453,2.453,0,0,0-1.676-2.953q-9.436-3.507-18.694-7.468a2.481,2.481,0,0,0-3.284.861,2.417,2.417,0,0,0,.861,3.284Z"/><path class="c" d="M142.327,80.175A77.852,77.852,0,0,1,130.843,98.1a9.888,9.888,0,0,0-2.581,4.738,19.277,19.277,0,0,0-.22,4.88c.281,3.353,1.157,6.676,1.029,10.057-.117,3.089,4.684,3.085,4.8,0,.121-3.19-.65-6.329-.974-9.486a16.167,16.167,0,0,1,.026-4.378c.265-1.542,1.494-2.612,2.448-3.773a79.564,79.564,0,0,0,11.1-17.542,2.472,2.472,0,0,0-.861-3.284,2.419,2.419,0,0,0-3.283.861Z"/><path class="c" d="M180.028,117.066a40.849,40.849,0,0,1,15.186,1.436c.813.217,1.612.47,2.407.748.095.034.724.3.137.047.144.063.279.143.422.208a7.776,7.776,0,0,1,1.679.863,6.265,6.265,0,0,1,2.131,5.178c-.223,4.537-5.543,7.289-9.51,7.966a59.09,59.09,0,0,1-6.674.49c-2.631.09-5.263.114-7.9.121-2.134,0-4.238-.055-6.367-.22q-1.893-.147-3.783-.336c-1.241-.126-2-.2-2.9-.356a2.473,2.473,0,0,0-2.953,1.677,2.419,2.419,0,0,0,1.677,2.952,82.108,82.108,0,0,0,13.668,1.084c5.5-.008,11.181.144,16.626-.8,5.534-.963,11.746-5.116,12.737-10.974a11.393,11.393,0,0,0-1.722-8.279,11.647,11.647,0,0,0-6.195-4.32,42.455,42.455,0,0,0-8.455-1.914,39.265,39.265,0,0,0-10.212-.368,2.475,2.475,0,0,0-2.4,2.4,2.413,2.413,0,0,0,2.4,2.4Z"/><path class="d" d="M70,246.759c-9.2-32.1-19.968-67.746-29.138-99.692,11.492-3.3,31.586-9.037,47.106-13.508,15.24-4.389,32.938-9.087,42.528-11.837,6.352-1.821,25.566-7.6,28.37-8.4.734,2.56,16.2,56.957,19.719,69.227,2.661,9.283,17.312,58.4,19.041,64.435Z"/><path class="c" d="M72.315,246.121c-7.5-26.134-15.293-52.179-22.925-78.273q-3.131-10.7-6.214-21.419L41.5,149.381c17.6-5.047,35.187-10.155,52.808-15.133,15.666-4.426,31.406-8.571,47.011-13.208,6.062-1.8,12.108-3.66,18.185-5.407l-2.952-1.676q2.8,9.768,5.563,19.545,4.776,16.782,9.555,33.562c2.041,7.165,4.064,14.335,6.163,21.483q4.612,15.7,9.289,31.38c2.617,8.82,5.255,17.634,7.834,26.465q.179.613.356,1.227c.85,2.964,5.484,1.7,4.628-1.276-2.252-7.848-4.621-15.664-6.944-23.492q-4.84-16.312-9.666-32.631c-2.037-6.911-4.013-13.839-5.988-20.768q-4.743-16.641-9.476-33.283-3.248-11.412-6.5-22.823l-.189-.665a2.437,2.437,0,0,0-2.953-1.676c-11.3,3.249-22.516,6.8-33.847,9.945-18.632,5.18-37.257,10.365-55.848,15.694q-14.154,4.057-28.309,8.109a2.435,2.435,0,0,0-1.676,2.952c7.495,26.1,15.286,52.123,22.906,78.191q3.141,10.743,6.232,21.5c.85,2.964,5.483,1.7,4.629-1.276Z"/><path class="c" d="M79.9,182.077c10.306-2.955,20.6-5.946,30.918-8.86,9.172-2.592,18.388-5.019,27.524-7.734,3.542-1.052,7.075-2.136,10.626-3.159,2.963-.853,1.7-5.486-1.276-4.628-6.622,1.907-13.193,3.981-19.833,5.827-10.912,3.034-21.82,6.07-32.707,9.191q-8.264,2.369-16.528,4.734c-2.964.85-1.7,5.483,1.276,4.629Z"/><path class="c" d="M84.909,201.829c10.3-2.955,20.6-5.945,30.918-8.86,9.172-2.591,18.387-5.018,27.524-7.733,3.542-1.052,7.075-2.137,10.626-3.159,2.963-.854,1.7-5.487-1.276-4.629-6.622,1.907-13.194,3.982-19.833,5.827-10.912,3.034-21.82,6.071-32.708,9.192Q91.9,194.835,83.633,197.2c-2.964.85-1.7,5.483,1.276,4.628Z"/><path class="c" d="M61.465,249.381c15.636,0,31.273-.247,46.908-.359,21.239-.151,42.474.163,63.713.206,10.628.022,21.255,0,31.883-.006,3.089,0,3.094-4.8,0-4.8-24.029,0-48.056.02-72.083-.239-16.189-.175-32.386.1-48.574.24-7.282.061-14.565.157-21.847.158-3.088,0-3.093,4.8,0,4.8Z"/><path class="a" d="M153.674,74.1c-.042,5.231,1.668,8.109,1.974,13.094.033,16.967-10.318,31.975-17.144,47.546-1.906,4.346-3.39,9.881-.256,13.444,2.108,2.4,5.758,2.957,8.833,2.1s5.681-2.882,8.044-5.029c12.241-11.122,20.058-26.305,31.518-38.23A84,84,0,0,1,203,93.819Z"/><path class="c" d="M151.274,74.1c.007,3.955,1.261,7.592,1.814,11.46s-.171,8.016-1.054,11.774c-1.9,8.105-5.573,15.627-9.268,23.037-1.887,3.785-3.8,7.559-5.553,11.408-1.61,3.539-3.227,7.274-3.18,11.243a9.755,9.755,0,0,0,5.834,9.156c3.776,1.591,7.977.851,11.474-1.09,3.62-2.009,6.694-5.117,9.52-8.1a123.2,123.2,0,0,0,8.089-9.609c5.021-6.508,9.626-13.338,14.909-19.642a85.1,85.1,0,0,1,18.866-16.912c6.951-4.5,14.71-7.825,20.869-13.479,6.475-5.944,10.335-14.335,14.622-21.861,3.714-6.522,7.454-13.03,11.165-19.554q1.641-2.886,3.277-5.775c1.524-2.692-2.621-5.113-4.145-2.422q-5.607,9.9-11.27,19.77-2.88,5.039-5.746,10.086c-2.1,3.706-4.124,7.486-6.583,10.974-4.721,6.7-11.65,10.565-18.619,14.528a93.931,93.931,0,0,0-19.963,14.83c-11.4,11.315-18.984,25.811-30.325,37.174-2.614,2.619-5.543,5.619-9.165,6.758-2.661.836-6.229.469-7.527-2.372-1.325-2.9.058-6.7,1.214-9.428,1.548-3.653,3.357-7.2,5.128-10.751,3.678-7.369,7.47-14.769,9.907-22.664a55.918,55.918,0,0,0,2.322-11.662,27.436,27.436,0,0,0-.112-6.3c-.253-1.785-.7-3.526-1.089-5.284a24.488,24.488,0,0,1-.611-5.294c-.006-3.088-4.806-3.094-4.8,0Z"/></svg>