<?xml version="1.0" encoding="utf-8"?>
<!-- Uploaded to: SVG Repo, www.svgrepo.com, Generator: SVG Repo Mixer Tools -->
<svg width="800px" height="800px" viewBox="0 -79.42 416.686 416.686" xmlns="http://www.w3.org/2000/svg"><defs><style>.a{fill:#ffffff;}.b{fill:#89705d;}.c{fill:#211715;}.d{fill:#bdbdbd;}.e{fill:#3f88c9;}.f{fill:#94d1e6;}.g{fill:#7a7473;}.h{fill:#6dbf6b;}.i{fill:#ad7b59;}.j{fill:#0a6289;}</style></defs><path class="a" d="M2.587,222.011H2c.075-27.66.6-137.357.6-156.43,0-8.042.034-49.1.037-63.233.844.007,1.412.007,1.412.007C12.526,2.355,78.375,2,100.278,2s146.514.414,166.991.414c18.14,0,107.613-.172,147.41-.176-.008,27.823-.008,139.084-.008,159.369,0,14.869.015,39.925.015,58.99-23.3,0-131.312-.157-161.361-.157-43.955,0-213.967,1.569-249.272,1.569Z"/><path class="b" d="M169.261,183.372c4.447-.147,6.04-.749,9.514-3.366a13.335,13.335,0,0,0,4.436-7.431,27.589,27.589,0,0,0,.46-8.377,83.255,83.255,0,0,0-5.241-25.053,24.179,24.179,0,0,0-4.58-7.223,21.45,21.45,0,0,0-10.459-6.107,31.637,31.637,0,0,0-5.814-.7c-3.464-.234-6.691.887-9.959,1.992-12.9,3.565-13.565,20.076-13.887,22.054-.325,2-.287,4.032-.527,6.039-.472,3.954-2.008,7.719-2.915,11.606s-.816,8.3,1.2,11.8c1.532,2.662,5.827,4.767,9.845,5.259Z"/><path class="a" d="M85.652,71.308a21.453,21.453,0,0,1-4.186,7.376A16.828,16.828,0,0,1,72,84.408a26.876,26.876,0,0,1-4.8.485,30.315,30.315,0,0,1-4.428-.427,17.088,17.088,0,0,1-9.906-5.64,21.512,21.512,0,0,1-4.272-7.345,9.864,9.864,0,0,1-5.227-4.214,6.249,6.249,0,0,1-.217-6.054A4.574,4.574,0,0,1,48.4,59.249s-2.56-15.935,18.056-15.935S85.9,59.181,85.9,59.181a4.573,4.573,0,0,1,5.185,2.128,6.245,6.245,0,0,1-.406,6.043,9.916,9.916,0,0,1-4.837,3.879"/><path class="b" d="M348.769,222.371v32.238l17.964.02c0-9.145,0-22.024,0-32.258"/><path class="b" d="M68.582,222.371v33.351c-6.25.044-12.264.087-17.966.125,0-16.682,0-33.476,0-33.476"/><path class="c" d="M346.769,222.371v32.238a2.03,2.03,0,0,0,2,2l17.964.02a2.028,2.028,0,0,0,2-2q0-16.129,0-32.258c0-2.574-4-2.578-4,0q0,16.129,0,32.258l2-2-17.964-.02,2,2V222.371c0-2.574-4-2.578-4,0Z"/><path class="c" d="M66.582,222.371v33.351l2-2q-8.983.063-17.966.125l2,2q0-16.739,0-33.476c0-2.574-4-2.578-4,0q0,16.738,0,33.476a2.027,2.027,0,0,0,2,2q8.982-.06,17.966-.125a2.031,2.031,0,0,0,2-2V222.371c0-2.574-4-2.578-4,0Z"/><path class="a" d="M196.713,100.893a11.808,11.808,0,0,0-3.37-3.8c-.677-.541-8.065-4.273-14.662-7.317-.578-1.113-.932-1.8-.932-1.8a18.907,18.907,0,0,0-3.855-5.208,38.326,38.326,0,0,1-11.061,7.709c-.229.1-.484.231-.558.471a.887.887,0,0,0,.128.625,10.023,10.023,0,0,0,.815,1.121c-1.905.033-4.065.076-5.743.106a11.288,11.288,0,0,0,.9-1.227.887.887,0,0,0,.128-.625c-.074-.24-.33-.367-.559-.471a38.339,38.339,0,0,1-11.061-7.709,19.875,19.875,0,0,0-4.444,6.431c-6.878,3.129-15.194,7.316-15.914,7.891a11.808,11.808,0,0,0-3.37,3.8Z"/><path class="d" d="M245.479,140.9a36.189,36.189,0,0,1,8.42-2.1c5.3-.481,9.125-.186,13.506,2.1,4.737,2.9,6.519,9.085,6.51,11.311l.912.237a4.576,4.576,0,0,1,3.3.332c2.5-8.178.574-16.566-4.515-21.769a20.618,20.618,0,0,0-3.935-2.754c-3.166-4.124-9.986-5.345-15.37-4.821-6.134.6-12.458,2.736-16.593,7.382-4.73,5.315-6.627,14.531-4.538,22.433a4.45,4.45,0,0,1,5.374-.075c-.026-2.4,1.273-10.5,6.93-12.273"/><path class="d" d="M219.153,196.228a11.866,11.866,0,0,1,3.37-3.8c.66-.53,7.7-4.09,14.17-7.09,1.46-1.84,2.98-3.43,3.54-3.43a12.965,12.965,0,0,0,.64,1.54c1.27,2.7,3.93,8.814,5.69,12.644l0,1.814-27.518.223Z"/><path class="c" d="M220.88,197.238a7.4,7.4,0,0,1,1.286-1.8c.325-.343.669-.666,1.025-.977-.007.006.7-.569.375-.335.039-.028.079-.054.119-.081a31.9,31.9,0,0,1,2.817-1.529c3.691-1.9,7.435-3.706,11.2-5.455a2.016,2.016,0,0,0,.718-2.736,2.046,2.046,0,0,0-2.736-.718c-3.9,1.809-7.768,3.674-11.58,5.652a23.381,23.381,0,0,0-2.557,1.413,13.443,13.443,0,0,0-4.121,4.543c-1.221,2.266,2.231,4.288,3.454,2.019Z"/><path class="e" d="M261.121,193.943c.6-2.813.688-5.413,1.222-8.444-2.426,0-10.269.188-12.031.188.595,2.351.815,6.016,1.364,8.368Z"/><path class="c" d="M263.049,194.475c.309-1.473.5-2.966.683-4.46.082-.68.159-1.36.245-2.04.006-.053.07-.536.051-.394-.016.11.058-.4.058-.4.057-.383.12-.765.186-1.146a2.032,2.032,0,0,0-1.929-2.532c-4.011,0-8.02.183-12.031.188a2.023,2.023,0,0,0-1.929,2.531c.164.665.288,1.338.395,2.015q.079.51.15,1.023c.014.095.027.19.04.284-.024-.181-.027-.2-.007-.053q.037.288.076.576c.2,1.511.372,3.035.711,4.523a2.017,2.017,0,0,0,2.46,1.4,2.044,2.044,0,0,0,1.4-2.46c-.152-.666-.267-1.339-.368-2.014-.028-.185-.054-.369-.08-.554-.007-.045-.075-.543-.042-.3.028.206-.044-.335-.053-.4-.025-.192-.051-.384-.076-.575a41.377,41.377,0,0,0-.746-4.524l-1.928,2.532c4.011-.005,8.02-.185,12.031-.188l-1.929-2.532c-.265,1.533-.449,3.079-.631,4.623-.082.691-.15,1.258-.213,1.689-.105.715-.229,1.426-.378,2.133a2,2,0,1,0,3.857,1.063Z"/><path class="a" d="M248,191.092c-3.12-2.623-5.164-5.8-7.468-8.971a14.477,14.477,0,0,1,3.386-3.869,34.338,34.338,0,0,0,9.715,5.726c.2.077.426.172.491.35a.575.575,0,0,1-.113.464A27.35,27.35,0,0,1,252,186.987C250.631,188.4,248.914,190.136,248,191.092Z"/><path class="c" d="M249.41,189.677c-2.95-2.507-4.909-5.467-7.155-8.566v2.019a12.875,12.875,0,0,1,3.073-3.464H242.5a35.568,35.568,0,0,0,5.137,3.642q1.29.75,2.639,1.391.635.3,1.281.576.451.194.9.379c.142.058.283.115.426.171q.723.317-.493-.487l-.273-1.01c-.013-.143.156-.7.343-.773-.07.026-.152.178-.2.233-.219.249-.446.491-.673.732-.591.628-1.193,1.247-1.8,1.865-1.07,1.1-2.15,2.187-3.213,3.292a2,2,0,1,0,2.828,2.829c1.274-1.324,2.571-2.626,3.849-3.946s3.767-3.24,2.55-5.3c-.589-1-1.94-1.3-2.768-1.67q-1.409-.629-2.76-1.379a30.671,30.671,0,0,1-4.953-3.373,2.079,2.079,0,0,0-2.829,0,16.561,16.561,0,0,0-3.7,4.274,1.957,1.957,0,0,0,0,2.019c2.387,3.293,4.656,6.72,7.781,9.376a2.053,2.053,0,0,0,2.828,0A2.017,2.017,0,0,0,249.41,189.677Z"/><path class="a" d="M264.447,191.092c3.12-2.623,5.164-5.8,7.469-8.971a14.512,14.512,0,0,0-3.386-3.869,34.344,34.344,0,0,1-9.716,5.726c-.2.077-.426.172-.49.35a.575.575,0,0,0,.112.464,27.563,27.563,0,0,0,2.009,2.195C261.813,188.4,263.529,190.136,264.447,191.092Z"/><path class="c" d="M265.862,192.506c3.124-2.656,5.393-6.083,7.78-9.376a1.957,1.957,0,0,0,0-2.019,16.561,16.561,0,0,0-3.7-4.274,2.077,2.077,0,0,0-2.829,0,30.585,30.585,0,0,1-4.848,3.314q-1.349.754-2.759,1.39c-.861.387-2.27.7-2.874,1.718-1.2,2.035,1.223,3.928,2.474,5.221,1.3,1.347,2.626,2.675,3.925,4.026a2,2,0,0,0,2.829-2.829c-1.064-1.1-2.144-2.194-3.214-3.292-.6-.618-1.2-1.237-1.8-1.865-.211-.224-.421-.448-.625-.678-.018-.02-.252-.251-.247-.287l.211.274c-.127-.208-.084-.041.132.5l-.274,1.01q-1.215.8-.492.487c.106-.042.212-.084.318-.128.259-.1.515-.212.772-.321.511-.216,1.019-.439,1.52-.677q1.347-.641,2.639-1.391a35.568,35.568,0,0,0,5.137-3.642h-2.829a12.9,12.9,0,0,1,3.074,3.464v-2.019c-2.246,3.1-4.205,6.058-7.156,8.566a2.018,2.018,0,0,0,0,2.829A2.043,2.043,0,0,0,265.862,192.506Z"/><path class="f" d="M98.9,102.9c-2.913-5.119-5.776-7.456-8.329-9.035a54.4,54.4,0,0,0-8.168-3.556,27.482,27.482,0,0,0-4.1-.887L77.631,102.7"/><path class="f" d="M36.183,102.9c2.914-5.119,5.776-7.456,8.329-9.035a54.4,54.4,0,0,1,8.168-3.556,27.482,27.482,0,0,1,4.1-.887l.675,13.111"/><path class="c" d="M245.6,82.3a20.345,20.345,0,0,1-.258,2.436l.072-.532a9.648,9.648,0,0,1-.455,2.312l.2-.477a2.3,2.3,0,0,1-.275.469l.312-.405a2.284,2.284,0,0,1-.377.365l.405-.313a3.357,3.357,0,0,1-.636.355l.478-.2c-.466.188-.953.327-1.429.489a2,2,0,0,0,1.063,3.857,9.6,9.6,0,0,0,2.543-1.046,4.362,4.362,0,0,0,1.8-2.926q.2-1.2.352-2.41a17.647,17.647,0,0,0,.2-1.973,2,2,0,1,0-4,0Z"/><path class="c" d="M260.845,82.714c.043.218.081.437.111.657l-.071-.531c.053.424.06.85.1,1.276.053.606.162,1.2.252,1.807a4.551,4.551,0,0,0,1.285,2.787,7.464,7.464,0,0,0,2.5,1.32c.528.206,1.059.407,1.585.621a2,2,0,0,0,1.541-.2,2,2,0,0,0,.717-2.736,2.34,2.34,0,0,0-1.195-.919c-.794-.324-1.6-.614-2.4-.936l.478.2a3.445,3.445,0,0,1-.433-.219c-.18-.109-.245-.258.127.118-.045-.046-.1-.085-.145-.13s-.091-.121-.126-.137c.04.018.315.467.165.2a3.258,3.258,0,0,1-.173-.338l.2.478a9.1,9.1,0,0,1-.409-2.08l.071.531c-.119-.948-.135-1.892-.321-2.836a2.011,2.011,0,0,0-2.46-1.4,2.05,2.05,0,0,0-1.4,2.46Z"/><path class="a" d="M224.886,101.421c2.914-5.118,5.777-7.456,8.33-9.035a54.49,54.49,0,0,1,8.168-3.555l.874-.262a3.96,3.96,0,0,1,3.437.568l.946.673c5.433,3.869,14.078,3.55,19.211-.709h0a3.958,3.958,0,0,1,3.669-.746l1.588.476a54.435,54.435,0,0,1,8.167,3.555c2.553,1.579,5.416,3.917,8.33,9.035"/><path class="g" d="M179.623,39.547a18.06,18.06,0,0,0-2.012-2.415,24.243,24.243,0,0,0-19.339-6.575c-6.134.588-12.167,2.812-16.3,7.381a22.711,22.711,0,0,0-4.793,21.074,4.578,4.578,0,0,1,4.609-.541c4.562-2.73,11.8-5.634,16.784-8.051a1.414,1.414,0,0,1,.858-.208c.726.138.768,1.155.627,1.88,1.576.409,3.129-.626,4.43-1.6l4.291-3.232a58.064,58.064,0,0,0,6.188,7.91,19.446,19.446,0,0,0,3.265,2.773l.546.295.051-.015a4.579,4.579,0,0,1,3.3.331A21.941,21.941,0,0,0,179.623,39.547Z"/><path class="h" d="M165.787,101.092c.6-2.814.689-5.414,1.223-8.445-2.427,0-10.269.188-12.031.188.595,2.351.815,6.016,1.364,8.368Z"/><path class="i" d="M232.053,50.757a23.561,23.561,0,0,0,.775,7.516,4.628,4.628,0,0,1,4.144-.728l2.253.737.425-.29a108.316,108.316,0,0,0,13.016-10.438c-.283,2-1.29,5.392-.022,5.043,5.3-1.393,10.371-4.2,13.437-8.588a45.381,45.381,0,0,0,2.5,7.615,24.318,24.318,0,0,0,4.774,6.4,4.354,4.354,0,0,1,4.422-.22c2.5-8.047.579-16.3-4.511-21.417a24.245,24.245,0,0,0-19.339-6.575c-6.134.588-12.167,2.812-16.3,7.381A22.205,22.205,0,0,0,232.053,50.757Z"/><path class="i" d="M231.171,68.476a9,9,0,0,1,.38-1.261s.211-.552.534-1.413a9.893,9.893,0,0,0,5.081,3.975,21.525,21.525,0,0,0,4.273,7.346,19.277,19.277,0,0,0,1.648,1.638c3.153,7.1-12.545,6.826-11.735,4.758,1.55-.878,1.9-3.019,1.484-4.749s-1.2-3.443-1.563-5.186A11.978,11.978,0,0,1,231.171,68.476Z"/><path class="c" d="M171.733,88.885c4.788,1.951,9.457,4.226,14.089,6.517,3.338,1.651,7.293,3.042,9.164,6.5,1.225,2.265,4.68.248,3.454-2.019-2.228-4.119-6.367-5.837-10.335-7.8-5.03-2.494-10.107-4.931-15.308-7.051a2.012,2.012,0,0,0-2.46,1.4,2.049,2.049,0,0,0,1.4,2.46Z"/><path class="c" d="M147.07,85.028c-5.2,2.12-10.278,4.557-15.308,7.051-3.969,1.967-8.107,3.685-10.335,7.8-1.225,2.265,2.227,4.287,3.454,2.019,1.87-3.458,5.825-4.849,9.164-6.5,4.632-2.291,9.3-4.566,14.088-6.517a2.063,2.063,0,0,0,1.4-2.46,2.013,2.013,0,0,0-2.46-1.4Z"/><path class="c" d="M2.587,220.011H2l2,2q.05-18.31.139-36.622.109-26.145.223-52.289.1-23.706.19-47.413.05-14.113.056-28.227.015-25.343.031-50.686,0-2.212,0-4.426l-2,2c27.256.191,54.526-.231,81.783-.314,22.19-.068,44.38.021,66.57.082q45.228.125,90.457.251,30.045.075,60.088.009,51.8-.075,103.591-.132,4.774,0,9.549,0l-2-2q-.01,39.125-.007,78.248,0,39.049,0,78.1,0,31.005.015,62.012l2-2q-39.717,0-79.435-.08-41.4-.05-82.795-.077c-24.51.01-49.02.221-73.53.393q-49.335.346-98.672.728c-24.119.176-48.239.389-72.359.443q-2.653.006-5.308,0c-2.574,0-2.578,4,0,4,22.31,0,44.62-.21,66.929-.37q49.128-.354,98.256-.727c26.364-.189,52.728-.4,79.092-.464,25.521-.061,51.044.026,76.565.055q43.04.05,86.077.092l5.18,0a2.03,2.03,0,0,0,2-2q0-44.421-.015-88.842,0-46.161,0-92.322,0-18.6,0-37.195a2.028,2.028,0,0,0-2-2q-50.7.006-101.395.119C292.122.39,270.96.436,249.8.387q-43.872-.1-87.744-.24c-22.7-.064-45.406-.181-68.109-.138C65.066.064,36.187.259,7.308.348,5.752.353,4.2.359,2.641.348a2.028,2.028,0,0,0-2,2q0,24.8-.03,49.588Q.6,66.572.567,81.206.492,103.951.389,126.693.278,152.976.165,179.259.081,199.094.009,218.928L0,222.011a2.029,2.029,0,0,0,2,2h.587C5.161,224.011,5.165,220.011,2.587,220.011Z"/><path class="j" d="M357.75,18.339q20.722-.026,41.445-.035l-2-2q-.009,33.845-.006,67.689,0,34.263,0,68.528,0,27.073.013,54.147l2-2q-14.088,0-28.176-.022-22.187-.021-44.372-.047-22.749-.025-45.5-.048-16.17-.015-32.342-.022c-8.952,0-17.9.045-26.856.092q-19.872.1-39.743.243-22.986.155-45.972.322-23.151.165-46.3.331-19.932.14-39.866.266-13.687.083-27.376.132-2.607.006-5.213,0l2,2q.044-15.917.122-31.834.1-22.552.2-45.105.089-20.814.169-41.629.045-12.345.052-24.69.014-22.156.029-44.314,0-1.973,0-3.947l-2,2c13.8.092,27.611-.088,41.413-.142,2.574-.01,2.579-4.01,0-4-13.8.054-27.611.234-41.413.142a2.029,2.029,0,0,0-2,2q0,21.806-.027,43.609-.007,12.636-.041,25.272-.067,19.984-.159,39.971-.1,22.787-.2,45.573-.073,17.21-.136,34.419,0,1.338-.008,2.675a2.028,2.028,0,0,0,2,2c8.136,0,16.271-.043,24.407-.088q18.784-.1,37.569-.241,22.57-.156,45.142-.321,23.4-.168,46.809-.331,20.851-.144,41.7-.269,15.327-.087,30.656-.136c9.2-.018,18.4,0,27.606.009q21.9.02,43.806.044l45.838.05q16.743.018,33.485.03l4.7,0a2.03,2.03,0,0,0,2-2q0-38.983-.013-77.966,0-40.024,0-80.047,0-16.175,0-32.351a2.029,2.029,0,0,0-2-2q-20.723,0-41.445.035c-2.573,0-2.578,4,0,4Z"/><path class="j" d="M262.425,18.46q30.268-.015,60.536-.076l22.815-.031c2.573,0,2.578-4,0-4q-35.891.046-71.779.1-5.786.008-11.572.011c-2.574,0-2.578,4,0,4Z"/><path class="j" d="M166.952,18.221q34.637.1,69.274.192,7.112.018,14.224.033c2.574.006,2.578-3.994,0-4q-31.491-.064-62.981-.167l-20.517-.058c-2.575-.008-2.578,3.992,0,4Z"/><path class="j" d="M71.441,18.212q30.8-.117,61.592-.082,10.971.027,21.943.057c2.575.007,2.578-3.993,0-4-20.2-.055-40.393-.117-60.59-.056q-11.472.036-22.945.081c-2.573.009-2.578,4.009,0,4Z"/><path class="j" d="M302.071,17.908q0,15.91,0,31.82.006,20.442.01,40.883c0,10.329-.009,20.657.037,30.986q.093,21.035.253,42.068c.083,12.958.176,25.916.2,38.874q0,1.71,0,3.42c0,2.574,4,2.578,4,0,0-12.3-.091-24.6-.169-36.894q-.135-21.459-.265-42.919-.079-15.564-.059-31.129,0-20.13-.008-40.26,0-17.142-.007-34.285V17.908c0-2.574-4-2.578-4,0Z"/><path class="j" d="M396.947,17.908q0,15.91.006,31.82l.009,40.883c0,10.329-.008,20.657.037,30.986q.093,21.035.253,42.068c.084,12.958.177,25.916.2,38.874q0,1.71,0,3.42c0,2.574,4,2.578,4,0,0-12.3-.09-24.6-.168-36.894q-.136-21.459-.266-42.919-.079-15.564-.058-31.129l-.009-40.26q0-17.142-.007-34.285V17.908c0-2.574-4-2.578-4,0Z"/><path class="j" d="M205.8,17.908q0,16.071.006,32.141l.009,41q0,15.563,0,31.124,0,21.1-.009,42.192,0,19.417-.007,38.833v3.5c0,2.574,4,2.578,4,0q0-18.474.006-36.948,0-21.507.009-43.016,0-15.651,0-31.3,0-20.172-.009-40.344,0-17.26-.007-34.523V17.908c0-2.574-4-2.578-4,0Z"/><path class="j" d="M111.267,17.908q0,16.151.006,32.3,0,20.637.009,41.274,0,15.558-.023,31.114-.063,21.207-.165,42.413-.081,19.437-.129,38.875,0,1.728,0,3.455c0,2.574,4,2.578,4,0,0-12.267.058-24.534.108-36.8q.087-21.619.173-43.239.052-15.664.039-31.327,0-20.28-.009-40.56,0-17.426-.007-34.852V17.908c0-2.574-4-2.578-4,0Z"/><path class="j" d="M262.425,113.478q18.97-.05,37.94-.094,1.861,0,3.723,0c2.574,0,2.578-4,0-4-9.128,0-18.255.039-27.383.062l-14.28.037c-2.574.007-2.579,4.007,0,4Z"/><path class="j" d="M166.951,113.734q33.362-.09,66.723-.18l16.776-.045c2.573-.006,2.578-4.006,0-4l-63.665.171-19.834.054c-2.573.007-2.578,4.007,0,4Z"/><path class="j" d="M71.441,113.992l63.681-.172,19.855-.053c2.573-.007,2.578-4.007,0-4l-66.766.18-16.77.045c-2.573.006-2.578,4.006,0,4Z"/><path class="j" d="M18.053,114.123c9.054,0,18.108-.04,27.162-.063l14.251-.037c2.574-.007,2.579-4.007,0-4q-18.887.049-37.775.094-1.819,0-3.638.006c-2.574,0-2.578,4,0,4Z"/><path class="j" d="M361.591,91.638c0-3.765-.023-50.213-.014-57.458-.378.1-12.651.014-19.139,0,0,8.632.024,52.744.024,57.384,5.034,0,16.08-.04,19.116-.04"/><path class="j" d="M323.82,190.538q9.709,0,19.418-.007,14.736-.006,29.47-.009,4.884,0,9.768,0a2.03,2.03,0,0,0,1.929-2.532c.2,1.032.043-.047.038-.36-.01-.64-.012-1.281-.014-1.921q-.009-2.892,0-5.785c.011-4.291.035-8.582.044-12.872a2.028,2.028,0,0,0-2-2q-11.112,0-22.224.009l-28.18.012-8.177,0a2.03,2.03,0,0,0-2,2c0,7.15.039,14.3.04,21.449,0,2.573,4,2.578,4,0,0-7.15-.04-14.3-.04-21.449l-2,2q9.688,0,19.376-.007l28.969-.012,10.236,0-2-2c-.01,4.393-.034,8.786-.045,13.179,0,1.931-.009,3.861,0,5.791a16.782,16.782,0,0,0,.118,3.032l1.928-2.532q-10.95-.014-21.9,0-14.389,0-28.78.01-3.987,0-7.975,0c-2.574,0-2.578,4,0,4Z"/><path class="j" d="M332.669,123.711c2.574,0,2.578-4,0-4s-2.578,4,0,4Z"/><path class="j" d="M334.667,110.221v-.061a2.024,2.024,0,0,0-2.531-1.929c.131-.031.682-.065.21-.044-.186.009-.372.01-.558.012-.661.006-1.321,0-1.981,0-2.214-.014-4.428-.033-6.643-.037a2.029,2.029,0,0,0-2,2c0,3.9-.017,7.809-.015,11.714a2.03,2.03,0,0,0,2,2c2.294,0,4.588.027,6.882.04.629,0,1.259.009,1.888,0a4.16,4.16,0,0,0,1.291-.115,2.074,2.074,0,0,0,1.469-1.928c0-3.883-.016-7.766-.012-11.649a2,2,0,0,0-4,0c0,3.883.012,7.766.012,11.649l1.468-1.929c-.074.028.724-.05.257-.04-.187,0-.374.011-.561.013-.649.008-1.3,0-1.948,0-2.248-.014-4.5-.034-6.746-.039l2,2c0-3.905.017-7.809.015-11.714l-2,2c2.26,0,4.52.024,6.78.038a14.171,14.171,0,0,0,3.255-.109l-2.532-1.928v.061a2,2,0,0,0,4,0Z"/><path class="j" d="M342.842,123.744c2.9,0,5.8-.032,8.7-.033a2,2,0,0,0,0-4c-2.9,0-5.8.033-8.7.033a2,2,0,0,0,0,4Z"/><path class="j" d="M342.842,112.176c2.9,0,5.8-.033,8.7-.033a2,2,0,0,0,0-4c-2.9,0-5.8.033-8.7.033a2,2,0,0,0,0,4Z"/><path class="j" d="M323.368,135.825q25.167.009,50.333,0h9.416c2.574,0,2.578-4,0-4-14.6,0-29.2.065-43.8.075-5.315,0-10.63-.073-15.945-.075-2.574,0-2.578,4,0,4Z"/><path class="j" d="M323.368,146.9c11.564,0,23.126.056,34.69.019q4.359-.014,8.718-.019c2.574,0,2.578-4,0-4-10.751,0-21.5.124-32.254.057-3.718-.023-7.436-.056-11.154-.057-2.574,0-2.578,4,0,4Z"/><path class="j" d="M374.85,34.4V34.18h8.016c.008,5.6-.017,20.014-.033,29.811-.674,0-7.119-.032-7.99-.032.013-3.2.02-9.735.007-12.967C374.834,46.967,374.85,37.258,374.85,34.4Z"/><path class="j" d="M325.728,52.713v.361c0,1.432-.008,29.882,0,31.894.007,1.616,0,4.924,0,6.524l-2.357.049c.007-1.6.01-4.868,0-6.484-.008-2.012,0-30.817,0-32.248V52.7Z"/><path class="j" d="M363.591,91.638q0-9.537-.008-19.074,0-14.377-.008-28.755,0-4.815,0-9.629a2.028,2.028,0,0,0-2.532-1.928c.842-.161.158-.047-.229-.039-.528.01-1.056.012-1.583.014-1.7.007-3.4,0-5.094,0-3.9-.011-7.8-.035-11.7-.044a2.029,2.029,0,0,0-2,2q0,10.943.009,21.885l.012,27.462q0,4.019,0,8.037a2.029,2.029,0,0,0,2,2c6.372,0,12.744-.039,19.116-.04,2.574,0,2.579-4,0-4-6.372,0-12.744.039-19.116.04l2,2q0-9.517-.008-19.035l-.012-28.251q0-5.049,0-10.1l-2,2c4.006.009,8.013.034,12.019.045,1.662,0,3.325.009,4.987,0a14.829,14.829,0,0,0,2.665-.117l-2.532-1.929q-.014,10.78,0,21.559,0,14.032.01,28.065,0,3.917,0,7.834c0,2.574,4,2.579,4,0Z"/><path class="j" d="M376.85,34.4V34.18l-2,2h8.016l-2-2c.013,9.937-.017,19.874-.033,29.811l2-2c-2.663,0-5.327-.03-7.99-.032l2,2c.04-9.854,0-19.709.007-29.564,0-2.574-4-2.578-4,0,0,9.855.033,19.71-.007,29.564a2.029,2.029,0,0,0,2,2c2.663,0,5.327.029,7.99.032a2.03,2.03,0,0,0,2-2c.016-9.937.046-19.874.033-29.811a2.03,2.03,0,0,0-2-2H374.85a2.03,2.03,0,0,0-2,2V34.4C372.85,36.969,376.85,36.973,376.85,34.4Z"/><path class="j" d="M323.728,52.713q0,15.1,0,30.209c0,2.857.01,5.713,0,8.57l2-2-2.357.049,2,2c.044-11.208,0-22.417,0-33.625q0-2.607,0-5.215l-2,2,2.356.012c2.575.014,2.578-3.986,0-4l-2.356-.012a2.028,2.028,0,0,0-2,2q0,15.13,0,30.26c0,2.86.01,5.72,0,8.58a2.026,2.026,0,0,0,2,2l2.357-.049a2.034,2.034,0,0,0,2-2c.043-11.188,0-22.376,0-33.564q0-2.607,0-5.215C327.729,50.139,323.729,50.135,323.728,52.713Z"/><path class="c" d="M30.891,67.369c.007-1.6.01-4.867,0-6.484-.008-2.012,0-30.817,0-32.248v-.108"/><path class="c" d="M32.891,67.369c.044-11.208,0-22.417,0-33.625q0-2.607,0-5.215c0-2.574-4-2.578-4,0q0,15.131,0,30.26c0,2.86.01,5.72,0,8.58-.01,2.574,3.99,2.577,4,0Z"/><path class="c" d="M292.225,169.147c.006-1.6.01-4.868,0-6.484-.008-2.012,0-30.817,0-32.248v-.108"/><path class="c" d="M294.225,169.147c.043-11.208,0-22.417,0-33.625q0-2.607,0-5.215c0-2.574-4-2.578-4,0q0,15.131,0,30.26c0,2.86.01,5.72,0,8.58-.01,2.574,3.99,2.577,4,0Z"/><path class="j" d="M362.41,123.736q10.349-.018,20.7-.025c2.574,0,2.578-4,0-4q-10.349,0-20.7.025c-2.574,0-2.579,4,0,4Z"/><path class="j" d="M385.117,121.807q0-6.074-.011-12.147a2.029,2.029,0,0,0-2.532-1.929c.9-.172.244-.055-.143-.049-.483.007-.965.009-1.447.011-1.581.007-3.161.006-4.742,0q-5.351-.006-10.7-.028c-1.044,0-2.087-.01-3.13-.01a2.028,2.028,0,0,0-2,2c0,1.522.017,3.045.019,4.568,0,2.574,4,2.578,4,0,0-1.523-.018-3.046-.019-4.568l-2,2c6.073,0,12.147.056,18.221.035a16.49,16.49,0,0,0,3.006-.107l-2.531-1.928q0,6.074.011,12.147c0,2.573,4,2.578,4,0Z"/><path class="c" d="M240.59,152.2c.018-.211.043-.42.067-.63.042-.382-.085.53-.019.139.021-.12.037-.24.057-.36q.126-.761.31-1.509.195-.792.455-1.566.124-.37.266-.737c.032-.082.065-.164.1-.245q.125-.3-.047.11c-.012-.086.131-.293.165-.365a13.3,13.3,0,0,1,.837-1.533c.073-.113.147-.225.224-.336.051-.074.1-.147.155-.219q.194-.26-.07.083a2.749,2.749,0,0,1,.523-.611,8.625,8.625,0,0,1,.675-.65l.154-.13q.173-.14-.141.106a1.25,1.25,0,0,1,.33-.234,7.239,7.239,0,0,1,.822-.478c.173-.085.355-.284.028-.025a1.925,1.925,0,0,1,.532-.189,2,2,0,1,0-1.063-3.857c-5.524,1.786-7.888,7.91-8.358,13.236a2.008,2.008,0,0,0,2,2,2.053,2.053,0,0,0,2-2Z"/><path class="c" d="M266.4,142.619c.294.182.574.378.854.58.116.087.084.063-.094-.072.061.049.121.1.181.15q.209.176.41.36a14.591,14.591,0,0,1,1.262,1.345c.293.348-.184-.263.06.073.088.122.178.243.264.366.185.263.36.533.528.807a16.7,16.7,0,0,1,.853,1.58c.059.125.117.251.173.377.028.063.056.125.083.188.059.139.036.083-.071-.166a2.44,2.44,0,0,1,.282.734c.175.49.33.989.459,1.494.1.4.172.8.251,1.2.07.357-.053-.511-.023-.181.007.082.018.163.025.245.014.166.022.333.023.5a2,2,0,1,0,4,0,17.324,17.324,0,0,0-7.5-13.038,2.019,2.019,0,0,0-2.736.718,2.041,2.041,0,0,0,.717,2.736Z"/><path class="c" d="M253.519,138.85a5.035,5.035,0,0,1,.288-.938l-.2.477a5.69,5.69,0,0,1,.71-1.209l-.313.405a6.287,6.287,0,0,1,1.111-1.106l-.4.313a6.491,6.491,0,0,1,.8-.521,2,2,0,0,0,.717-2.737,2.017,2.017,0,0,0-1.195-.919,2.128,2.128,0,0,0-1.541.2,8.062,8.062,0,0,0-2.473,2.142,6.907,6.907,0,0,0-1.355,2.828,2.136,2.136,0,0,0,.2,1.541,2,2,0,0,0,2.736.717,1.981,1.981,0,0,0,.919-1.195Z"/><path class="c" d="M258.979,140.815q.351-.328.727-.623l-.4.313a11.264,11.264,0,0,1,2.44-1.423l-.478.2a11.706,11.706,0,0,1,2.764-.776,2,2,0,0,0,1.2-.919,2.044,2.044,0,0,0,.2-1.541,2.017,2.017,0,0,0-.919-1.195,2.321,2.321,0,0,0-1.541-.2,12.936,12.936,0,0,0-6.814,3.336,2.017,2.017,0,0,0,0,2.829,2.043,2.043,0,0,0,2.828,0Z"/><path class="c" d="M194.049,130.34q.961-.889,2-1.695l-.405.313q.972-.75,2-1.416a2.1,2.1,0,0,0,.919-1.2,2,2,0,0,0-2.938-2.259,32.182,32.182,0,0,0-4.405,3.424,2,2,0,0,0,0,2.828,2.014,2.014,0,0,0,1.415.586,2.147,2.147,0,0,0,1.414-.586Z"/><path class="c" d="M194.049,139.291q.961-.891,2-1.695l-.405.312q.972-.75,2-1.416a2.1,2.1,0,0,0,.919-1.195,2.042,2.042,0,0,0-.2-1.541,2,2,0,0,0-2.737-.718,32.34,32.34,0,0,0-4.405,3.424,2,2,0,0,0,0,2.829,2.018,2.018,0,0,0,1.415.585,2.151,2.151,0,0,0,1.414-.585Z"/><path class="c" d="M194.049,147.957q.961-.889,2-1.695l-.405.313q.972-.75,2-1.416a2.1,2.1,0,0,0,.919-1.195,2,2,0,0,0-2.938-2.259,32.182,32.182,0,0,0-4.405,3.424,2,2,0,0,0,0,2.828,2.014,2.014,0,0,0,1.415.586,2.147,2.147,0,0,0,1.414-.586Z"/><path class="j" d="M66.962,150.479a6.236,6.236,0,0,0-2.945,2.6,19.757,19.757,0,0,0-2.064,4.053c-.989,2.511-1.958,6.1-.4,8.587a4.785,4.785,0,0,0,6.9,1.139,7.038,7.038,0,0,0,2.959-5.962,4.36,4.36,0,0,0-2.189-3.551A7.538,7.538,0,0,0,64,157a2.015,2.015,0,0,0-1.4,2.46,2.045,2.045,0,0,0,2.46,1.4c.153-.033.306-.066.46-.094.1-.018.2-.029.292-.049,0,0-.407.038-.182.025.3-.016.588-.051.886-.046.113,0,.226.012.339.016.386.015-.208-.052-.115-.019a5.641,5.641,0,0,0,.631.17c.045.009-.444-.252-.135-.045a1.831,1.831,0,0,0,.2.125c.226.109-.309-.323-.167-.126a1.2,1.2,0,0,0,.2.211c-.107-.02-.29-.47-.145-.173a1.246,1.246,0,0,0,.12.218c.046.053-.146-.508-.094-.214.014.08.047.165.069.243s.077.446.014.024c-.059-.4-.012-.1-.014,0,0,.179-.022.363-.021.541,0,.065.115-.563.016-.176-.02.079-.034.159-.054.239-.048.189-.122.368-.177.555-.085.292.22-.432.071-.164-.041.074-.073.155-.111.231a5.639,5.639,0,0,1-.3.521c-.054.083-.124.161-.171.248s.337-.392.1-.134c-.134.146-.261.3-.405.435-.06.057-.127.11-.186.168-.267.265.372-.236.113-.082-.162.1-.321.2-.482.3-.281.17.054-.063.19-.069a1.277,1.277,0,0,0-.221.08c-.086.024-.178.042-.263.071-.336.114.44-.007.188-.018-.134-.006-.691-.036-.282.026.431.065-.212-.093-.328-.108-.08-.01.444.244.159.062a2.408,2.408,0,0,0-.278-.16c-.263-.122.291.3.112.093-.074-.088-.258-.35-.088-.059.216.369-.116-.312-.176-.348.132.079.152.467.067.113-.032-.132-.067-.263-.1-.4-.087-.37.081-.015.009.107.04-.068-.024-.3-.027-.392a7.771,7.771,0,0,1,.018-.836c.009-.124.031-.25.036-.375s-.072.426,0,.019c.054-.31.112-.618.184-.925a17.535,17.535,0,0,1,.539-1.822q.084-.236.173-.469c.04-.1.238-.608.138-.356s.088-.2.123-.279c.077-.169.155-.337.236-.5a17.21,17.21,0,0,1,.915-1.663c.155-.247.325-.482.489-.724.176-.259-.3.342.012-.012.075-.086.147-.173.224-.257.123-.133.384-.288.466-.443-.148.28-.419.173-.11.108.359-.076-.373.135-.2.075a2,2,0,1,0-1.063-3.857Z"/><path class="c" d="M229.623,66.683c-1.232,3.334-.578,6.908.532,10.173a26.389,26.389,0,0,1,.775,2.551,4.491,4.491,0,0,1,0,1.422,1.273,1.273,0,0,1-.275.683c-.085.13-.227.23-.132.169a2.3,2.3,0,0,0-1.128,2.555c.46,1.887,2.68,2.284,4.308,2.468a17.268,17.268,0,0,0,6.117-.444c2.362-.6,4.586-1.862,5.462-4.248a2.018,2.018,0,0,0-1.4-2.46,2.042,2.042,0,0,0-2.46,1.4c-.134.365.235-.314.007-.036-.036.044-.322.487-.111.2s-.074.075-.127.125c-.092.088-.187.173-.279.26-.114.095-.064.058.148-.111-.071.053-.145.1-.219.153-.118.069-.231.146-.351.213-.151.085-.9.4-.43.228a12.921,12.921,0,0,1-1.765.527c-.312.068-.625.117-.939.171-.467.081.331-.017-.1.011-.184.012-.368.037-.553.051a16.786,16.786,0,0,1-1.9.041c-.28-.01-.557-.033-.836-.054-.141-.01-.572-.082.018.012-.12-.019-.24-.036-.36-.058a6.382,6.382,0,0,1-.638-.143,2.243,2.243,0,0,0-.275-.086c-.338-.048.437.213.165.074a1.161,1.161,0,0,1-.193-.105c-.243-.186.405.353.21.161a1.681,1.681,0,0,1,.389,1.465l-.919,1.195a5.446,5.446,0,0,0,2.507-3.778,10.133,10.133,0,0,0-.614-4.957,21.185,21.185,0,0,1-1.265-4.833,8.131,8.131,0,0,1,.49-3.931,2.017,2.017,0,0,0-1.4-2.46,2.041,2.041,0,0,0-2.46,1.4Z"/><path class="c" d="M264.226,44.862a44.976,44.976,0,0,0,2.425,7.357,24.361,24.361,0,0,0,4.315,6.282,2.015,2.015,0,0,0,2.828,0,2.044,2.044,0,0,0,0-2.829,19,19,0,0,1-2.189-2.843,21.15,21.15,0,0,1-1.5-2.629c-.02-.045-.148-.343-.046-.1.117.279-.079-.2-.081-.207-.1-.248-.189-.5-.28-.747-.2-.557-.387-1.119-.566-1.684q-.576-1.815-1.048-3.662a2,2,0,1,0-3.857,1.063Z"/><path class="c" d="M264.4,42.931a17.952,17.952,0,0,1-5.511,4.947,20.573,20.573,0,0,1-6.939,2.815h1.064q1.113,2.16,1,1.046,0-.252.024-.5c.025-.276.08-.551.129-.824.138-.776.3-1.546.422-2.326.287-1.877-1.793-3.448-3.342-1.946a96.71,96.71,0,0,1-12.611,10.126c-2.108,1.448-.11,4.917,2.019,3.454a103.013,103.013,0,0,0,13.42-10.751l-3.343-1.946c-.274,1.8-1.086,3.928-.59,5.743.775,2.838,3.948,1.575,5.849.872a24.667,24.667,0,0,0,11.86-8.687,2.018,2.018,0,0,0-.717-2.737,2.042,2.042,0,0,0-2.736.718Z"/><path class="c" d="M279.882,57.729a24.694,24.694,0,0,0-1.453-17.511,22.71,22.71,0,0,0-12.437-10.771c-10.713-4.122-24.705-.966-31.54,8.525a25.05,25.05,0,0,0-3.909,19.312c.482,2.526,4.337,1.457,3.857-1.063a21.079,21.079,0,0,1,2.45-14.614,19.621,19.621,0,0,1,11.315-8.625c9.028-2.806,20.554-.947,25.9,7.617a20.213,20.213,0,0,1,1.963,16.066c-.681,2.487,3.177,3.548,3.857,1.064Z"/><path class="c" d="M275.008,59.406c.159-.043.315-.073.475-.109-.461.1,0,.014.114.012.163,0,.324.01.487.017-.271-.013-.2-.033.031.015a4.762,4.762,0,0,1,.472.128c.193.063.3.127.054.007.146.072.292.144.432.229.066.039.473.35.13.061.125.106.247.213.361.33.076.077.355.459.108.1.078.114.153.229.221.349.045.076.086.154.124.234-.066-.175-.073-.2-.023-.062a7.69,7.69,0,0,1,.26.969c-.083-.418,0,.145,0,.2q.011.28,0,.561c0,.09-.079.626-.01.216-.026.156-.057.31-.094.463-.043.184-.1.366-.154.546-.039.122-.142.4-.033.139a5.946,5.946,0,0,1-.537.985c-.009.014-.357.5-.131.207-.116.152-.243.3-.371.438a9.868,9.868,0,0,1-.754.749q-.18.162-.369.315c.271-.221-.158.113-.215.153a10.184,10.184,0,0,1-.983.6c-.167.09-.338.171-.508.254-.382.186.22-.08-.21.083a2.046,2.046,0,0,0-1.4,2.46,2.025,2.025,0,0,0,2.461,1.4c3.915-1.477,7.355-4.969,7.312-9.382a6.8,6.8,0,0,0-2.764-5.55,6.623,6.623,0,0,0-5.553-.976,2,2,0,0,0,1.063,3.858Z"/><path class="c" d="M237.5,55.616a6.62,6.62,0,0,0-5.576.85,6.844,6.844,0,0,0-2.883,5.492c-.182,4.423,3.228,7.97,7.077,9.562a2.006,2.006,0,0,0,2.46-1.4,2.064,2.064,0,0,0-1.4-2.461c.374.155-.176-.091-.2-.1-.169-.085-.336-.175-.5-.269-.306-.177-.6-.371-.886-.577q-.166-.123.02.019c-.076-.06-.151-.122-.224-.185-.124-.105-.245-.212-.363-.323a11.324,11.324,0,0,1-.8-.839c-.393-.449.181.289-.156-.2-.108-.155-.214-.311-.313-.472q-.122-.2-.23-.405c-.045-.083-.087-.166-.126-.251.063.162.069.178.018.045a6.58,6.58,0,0,1-.3-.994c-.01-.045-.085-.629-.049-.214-.016-.188-.031-.374-.035-.563s.011-.373.015-.56c.007-.374-.046.1.01-.111a7.742,7.742,0,0,1,.272-.966c-.153.375.068-.1.112-.176s.351-.468.065-.137c.107-.125.215-.246.334-.36.079-.076.464-.347.1-.1.113-.076.226-.151.344-.22.051-.029.516-.262.272-.153s.166-.054.22-.07c.156-.049.315-.082.474-.121.49-.118-.39,0,.113-.012.164,0,.324,0,.488,0,.417,0-.327-.109.111.008.158.041.315.076.471.123a2.02,2.02,0,0,0,2.461-1.4,2.044,2.044,0,0,0-1.4-2.461Z"/><path class="c" d="M272.3,69.072a19.142,19.142,0,0,1-6.249,8.979,16.5,16.5,0,0,1-10.066,3.131,17.255,17.255,0,0,1-10.423-2.989,18.609,18.609,0,0,1-6.473-8.974c-.843-2.414-4.708-1.376-3.857,1.064,2.317,6.635,7.448,12.46,14.459,14.175,6.917,1.692,14.613.571,20.008-4.273a23.637,23.637,0,0,0,6.458-10.049c.828-2.444-3.034-3.493-3.857-1.064Z"/><path class="c" d="M266.518,61.505a3.241,3.241,0,0,1-1.3,2.624,3.047,3.047,0,0,1-2.065.493,3.1,3.1,0,0,1-1.785-5.457,3.146,3.146,0,0,1,4.026-.045A2.921,2.921,0,0,1,266.518,61.505Z"/><path class="c" d="M251.463,61.505a3.247,3.247,0,0,1-1.305,2.624,3.049,3.049,0,0,1-2.066.493,3.1,3.1,0,0,1-1.785-5.457,3.147,3.147,0,0,1,4.027-.045A2.923,2.923,0,0,1,251.463,61.505Z"/><path class="c" d="M226.613,102.431A22.181,22.181,0,0,1,236.8,92.805a43.469,43.469,0,0,1,5.341-2.114,2.632,2.632,0,0,1,2.6.21,29.373,29.373,0,0,0,2.52,1.623,19.08,19.08,0,0,0,16.026.439,15.546,15.546,0,0,0,3.309-1.919,2.492,2.492,0,0,1,2.562-.711,41.032,41.032,0,0,1,5.039,1.808,25.98,25.98,0,0,1,5.84,3.177,23.873,23.873,0,0,1,5.845,7.113c1.287,2.228,4.745.216,3.454-2.019A25.684,25.684,0,0,0,278,89.483a52.173,52.173,0,0,0-6.4-2.594,16.046,16.046,0,0,0-2.315-.613,6.179,6.179,0,0,0-4.843,1.41,14.757,14.757,0,0,1-15.006,1.463,26.876,26.876,0,0,1-2.675-1.7,6.113,6.113,0,0,0-4.637-.9,31.572,31.572,0,0,0-5.84,2.143,28.03,28.03,0,0,0-6.672,3.82,27.712,27.712,0,0,0-6.448,7.905c-1.29,2.233,2.165,4.25,3.453,2.019Z"/><path class="c" d="M184.232,58.47a24.683,24.683,0,0,0-1.453-17.511,22.715,22.715,0,0,0-12.436-10.771c-10.714-4.122-24.7-.966-31.541,8.525a25.05,25.05,0,0,0-3.908,19.312c.481,2.526,4.337,1.457,3.857-1.063a21.075,21.075,0,0,1,2.45-14.613,19.617,19.617,0,0,1,11.315-8.626c9.027-2.806,20.553-.946,25.9,7.618a20.208,20.208,0,0,1,1.963,16.066c-.68,2.486,3.178,3.547,3.857,1.063Z"/><path class="c" d="M179.359,60.147c.158-.043.315-.073.474-.109-.461.1,0,.014.114.012.163,0,.325.01.487.018-.271-.013-.2-.034.032.015a4.634,4.634,0,0,1,.472.127c.193.063.3.128.053.007.147.072.293.145.433.229.065.039.472.351.129.061.125.106.247.213.362.33.075.077.355.459.108.1.078.114.153.229.221.349.044.077.086.154.124.234q-.1-.263-.023-.061a7.687,7.687,0,0,1,.259.969c-.082-.419,0,.144,0,.2.008.186.006.374,0,.56,0,.091-.078.626-.009.217-.026.155-.058.309-.094.463-.044.184-.095.365-.154.545-.04.122-.142.4-.033.14a5.983,5.983,0,0,1-.538.984c-.009.014-.356.5-.131.207-.116.152-.243.3-.371.438a9.675,9.675,0,0,1-.753.749q-.181.162-.369.315c.271-.22-.158.113-.216.153a10.292,10.292,0,0,1-.982.6c-.167.09-.338.171-.508.254-.383.186.22-.079-.21.083a2.045,2.045,0,0,0-1.4,2.46,2.023,2.023,0,0,0,2.46,1.4c3.915-1.477,7.356-4.969,7.313-9.382a6.8,6.8,0,0,0-2.765-5.55,6.618,6.618,0,0,0-5.553-.975,2,2,0,0,0,1.064,3.857Z"/><path class="c" d="M141.854,56.358a6.614,6.614,0,0,0-5.575.849A6.846,6.846,0,0,0,133.4,62.7c-.182,4.422,3.227,7.97,7.076,9.561a2,2,0,0,0,2.46-1.4,2.061,2.061,0,0,0-1.4-2.46c.375.155-.175-.092-.2-.1-.169-.084-.336-.175-.5-.269a10.243,10.243,0,0,1-.885-.577q-.166-.123.02.02-.114-.091-.225-.186-.184-.157-.363-.322a11.524,11.524,0,0,1-.8-.839c-.392-.45.182.289-.156-.2-.107-.155-.213-.311-.312-.472-.081-.132-.159-.267-.231-.405-.044-.083-.086-.166-.125-.251.063.163.068.178.017.046a6.766,6.766,0,0,1-.3-.994c-.01-.046-.085-.63-.049-.214-.016-.188-.032-.375-.035-.563s.011-.374.014-.561c.008-.374-.046.1.011-.11a7.709,7.709,0,0,1,.272-.967c-.154.375.068-.1.112-.176s.351-.468.064-.137c.108-.124.216-.245.334-.36.079-.076.464-.347.1-.1.113-.076.226-.151.343-.219.051-.03.517-.263.273-.153s.166-.054.219-.071c.157-.048.315-.082.474-.121.49-.118-.389,0,.114-.012.163,0,.324,0,.487,0,.418,0-.326-.108.112.008.157.042.315.076.471.124a2.019,2.019,0,0,0,2.46-1.4,2.04,2.04,0,0,0-1.4-2.46Z"/><path class="c" d="M176.648,69.813a19.135,19.135,0,0,1-6.249,8.979,16.494,16.494,0,0,1-10.065,3.131,17.257,17.257,0,0,1-10.424-2.989,18.6,18.6,0,0,1-6.472-8.973c-.843-2.415-4.709-1.376-3.857,1.063,2.316,6.635,7.448,12.46,14.458,14.175,6.918,1.692,14.613.572,20.008-4.273a23.628,23.628,0,0,0,6.458-10.049c.828-2.444-3.034-3.492-3.857-1.064Z"/><path class="c" d="M170.869,62.246a3.247,3.247,0,0,1-1.305,2.624,3.051,3.051,0,0,1-2.066.494,3.1,3.1,0,0,1-1.785-5.458,3.15,3.15,0,0,1,4.027-.045A2.922,2.922,0,0,1,170.869,62.246Z"/><path class="c" d="M155.813,62.246a3.241,3.241,0,0,1-1.3,2.624,3.048,3.048,0,0,1-2.065.494,3.1,3.1,0,0,1-1.785-5.458,3.149,3.149,0,0,1,4.026-.045A2.922,2.922,0,0,1,155.813,62.246Z"/><path class="c" d="M167.688,49.281a63.123,63.123,0,0,0,5.093,6.436,25.045,25.045,0,0,0,1.831,1.9,14.348,14.348,0,0,0,2.608,2.05,2,2,0,1,0,2.019-3.454,5.731,5.731,0,0,1-.5-.316c-.092-.065-.179-.148-.276-.2.466.27.14.107.02.009-.388-.318-.764-.652-1.132-.994a25.144,25.144,0,0,1-1.744-1.817q-1.274-1.444-2.482-2.946-.3-.381-.605-.766c.166.213.091.119-.029-.039q-.142-.187-.284-.376-.552-.738-1.067-1.5a2,2,0,0,0-3.454,2.019Z"/><path class="c" d="M168.029,45.331l-3.984,3c-.856.645-2.266,2.054-3.457,1.833l1.4,2.46c.319-2.1-.379-4.6-2.994-4.378a10.026,10.026,0,0,0-3.12,1.248c-.915.425-1.834.841-2.753,1.255-3.934,1.773-7.917,3.481-11.675,5.61-2.24,1.269-.227,4.726,2.018,3.454,2.589-1.466,5.291-2.722,8-3.952,1.413-.642,2.831-1.274,4.245-1.913q.918-.416,1.832-.836.525-.243,1.048-.488c.137-.065.881-.27.556-.393l-.883-.514c-.217-.19-.1-.352-.128-.156a2.035,2.035,0,0,0,1.4,2.46A6.937,6.937,0,0,0,165,52.58c1.717-1.216,3.372-2.529,5.053-3.8a2.063,2.063,0,0,0,.718-2.736,2.014,2.014,0,0,0-2.737-.718Z"/><path class="c" d="M167.716,101.623c.309-1.473.5-2.966.683-4.46.081-.68.158-1.36.244-2.039.007-.054.071-.537.051-.395-.015.11.058-.4.059-.4q.086-.575.185-1.146a2.031,2.031,0,0,0-1.928-2.532c-4.011,0-8.021.183-12.031.188a2.023,2.023,0,0,0-1.929,2.531c.164.665.287,1.338.394,2.015.054.34.1.681.151,1.023l.039.285c-.024-.182-.026-.2-.007-.054q.039.288.076.576c.2,1.511.372,3.035.711,4.523a2.017,2.017,0,0,0,2.461,1.4,2.044,2.044,0,0,0,1.4-2.46c-.152-.666-.267-1.339-.368-2.014-.028-.184-.055-.369-.081-.553-.006-.046-.075-.544-.041-.3.028.206-.045-.335-.053-.4q-.039-.287-.076-.575a41.863,41.863,0,0,0-.746-4.524l-1.928,2.532c4.01,0,8.02-.185,12.031-.188l-1.929-2.531c-.265,1.533-.449,3.078-.632,4.622-.081.691-.15,1.258-.213,1.689q-.156,1.072-.377,2.133a2,2,0,0,0,3.857,1.063Z"/><path class="a" d="M169.247,100.055c3.552-3.53,5.878-7.806,8.5-12.077a18.907,18.907,0,0,0-3.855-5.208,38.326,38.326,0,0,1-11.061,7.709c-.229.1-.484.231-.558.471a.887.887,0,0,0,.128.625,35.721,35.721,0,0,0,2.288,2.954C166.247,96.434,168.2,98.768,169.247,100.055Z"/><path class="a" d="M151.53,100.055c-3.552-3.53-5.878-7.806-8.5-12.077a18.923,18.923,0,0,1,3.854-5.208,38.339,38.339,0,0,0,11.061,7.709c.229.1.485.231.559.471a.887.887,0,0,1-.128.625,35.965,35.965,0,0,1-2.288,2.954C154.529,96.434,152.575,98.768,151.53,100.055Z"/><path class="c" d="M170.661,101.469a49.744,49.744,0,0,0,7-9.483c.5-.825,1-1.652,1.5-2.475a2.719,2.719,0,0,0,.557-1.8A4.572,4.572,0,0,0,179,86.09a20.461,20.461,0,0,0-3.687-4.734,2.035,2.035,0,0,0-2.828,0,35.582,35.582,0,0,1-5.879,4.767c-1.044.677-2.12,1.306-3.226,1.877-1.151.594-2.641,1.01-3.029,2.418a3.308,3.308,0,0,0,.82,2.869c.735.977,1.511,1.924,2.285,2.87,1.454,1.775,2.933,3.531,4.382,5.312a2.013,2.013,0,0,0,2.828,0,2.047,2.047,0,0,0,0-2.829c-1.209-1.486-2.44-2.954-3.659-4.432-.686-.833-1.371-1.666-2.043-2.51-.244-.307-.3-.368-.507-.652a3.384,3.384,0,0,0-.239-.339c-.192-.2.1-.3.062.243L164,91.96q-.612.5-.159.246l.257-.118c.26-.122.519-.245.776-.372q.787-.391,1.555-.819,1.582-.883,3.078-1.913a40.507,40.507,0,0,0,5.8-4.8H172.48a17.844,17.844,0,0,1,3.542,4.8V86.969c-2.489,4.06-4.8,8.268-8.189,11.671C166.015,100.467,168.842,103.3,170.661,101.469Z"/><path class="c" d="M152.944,98.64c-3.386-3.4-5.7-7.611-8.189-11.671v2.019a17.823,17.823,0,0,1,3.542-4.8h-2.829a40.7,40.7,0,0,0,5.8,4.8q1.494,1.028,3.078,1.913.7.393,1.426.754.386.194.775.376c.129.061.258.12.387.179q.453.253-.159-.246l-.273-1.01c-.04-.511.261-.456.061-.243a2.635,2.635,0,0,0-.192.274c-.263.367-.261.35-.553.717-.672.844-1.358,1.677-2.044,2.51-1.218,1.478-2.449,2.946-3.658,4.432a2.059,2.059,0,0,0,0,2.829,2.014,2.014,0,0,0,2.828,0c1.419-1.744,2.867-3.465,4.293-5.2.784-.956,1.565-1.915,2.314-2.9a3.372,3.372,0,0,0,.879-2.948c-.377-1.369-1.777-1.779-2.9-2.352q-1.659-.849-3.228-1.86a35.694,35.694,0,0,1-6.006-4.85,2.037,2.037,0,0,0-2.829,0,20.465,20.465,0,0,0-3.615,4.608,6.7,6.7,0,0,0-.754,1.483,2.544,2.544,0,0,0,.522,2.064c.5.823,1,1.65,1.5,2.475a49.744,49.744,0,0,0,7,9.483C151.934,103.3,154.763,100.468,152.944,98.64Z"/><path class="c" d="M280.232,152.692a25.262,25.262,0,0,0-1.8-18.459,17.47,17.47,0,0,0-6.031-6.66,7.644,7.644,0,0,1-1.725-1.238,11.16,11.16,0,0,0-1.188-1.123,15.007,15.007,0,0,0-3.793-2.232c-5.314-2.211-11.4-2-16.9-.636-5.824,1.445-11.256,4.594-14.524,9.742-3.742,5.892-4.653,13.385-3.378,20.154.476,2.527,4.332,1.457,3.857-1.063a24.5,24.5,0,0,1,2.059-15.471,18.4,18.4,0,0,1,11.172-8.976,25.386,25.386,0,0,1,14.654-.608,11.641,11.641,0,0,1,5.424,3.288c.922.978,2.25,1.465,3.317,2.278a11.778,11.778,0,0,1,2.415,2.63,20.73,20.73,0,0,1,2.583,17.311c-.669,2.488,3.188,3.55,3.857,1.063Z"/><path class="c" d="M275.359,154.369c.158-.043.315-.073.474-.109-.461.1,0,.014.114.012.163,0,.325.01.487.018-.271-.013-.2-.034.032.015.159.034.316.077.472.127.193.063.3.128.053.007.147.072.293.145.433.229.065.039.472.351.129.061.125.106.247.213.362.33.075.077.355.459.108.1.078.114.153.229.221.349.044.076.086.154.124.233-.066-.174-.074-.195-.023-.061a7.687,7.687,0,0,1,.259.969c-.082-.419,0,.144,0,.2.008.186.006.374,0,.56,0,.091-.078.626-.009.217-.026.155-.058.309-.094.463q-.066.276-.154.546c-.04.121-.142.4-.033.139a5.983,5.983,0,0,1-.538.984c-.009.014-.356.5-.131.207-.116.152-.243.3-.371.439a9.841,9.841,0,0,1-.753.748q-.181.162-.369.315c.271-.22-.158.114-.216.153a10.292,10.292,0,0,1-.982.6c-.167.09-.338.171-.508.254-.383.186.22-.079-.21.083a2.045,2.045,0,0,0-1.4,2.46,2.023,2.023,0,0,0,2.46,1.4c3.915-1.477,7.356-4.968,7.313-9.382a6.8,6.8,0,0,0-2.765-5.549,6.615,6.615,0,0,0-5.553-.976,2,2,0,0,0,1.064,3.857Z"/><path class="c" d="M237.854,150.58a6.611,6.611,0,0,0-5.575.85,6.844,6.844,0,0,0-2.883,5.492c-.182,4.423,3.227,7.97,7.076,9.561a2,2,0,0,0,2.46-1.4,2.061,2.061,0,0,0-1.4-2.46c.375.155-.175-.092-.2-.1q-.254-.127-.5-.27a10.474,10.474,0,0,1-.885-.576q-.166-.123.02.019-.114-.091-.225-.186-.184-.157-.363-.322a11.524,11.524,0,0,1-.8-.839c-.392-.45.182.289-.156-.2-.107-.156-.213-.311-.312-.472-.081-.133-.159-.268-.231-.406-.044-.082-.086-.166-.125-.251.063.163.068.178.017.046a6.766,6.766,0,0,1-.3-.994c-.01-.046-.085-.63-.049-.214-.016-.188-.032-.374-.035-.563s.011-.373.014-.56c.008-.374-.046.1.011-.111a7.709,7.709,0,0,1,.272-.967c-.154.375.068-.1.112-.175s.351-.469.064-.138c.108-.124.216-.245.334-.359.079-.077.464-.348.1-.1.113-.075.226-.151.343-.219.051-.03.517-.263.273-.153s.166-.054.219-.071c.157-.048.315-.082.474-.12.49-.119-.389,0,.114-.012.163,0,.324,0,.487,0,.418,0-.326-.108.112.008.157.042.315.076.471.124a2.019,2.019,0,0,0,2.46-1.4,2.041,2.041,0,0,0-1.4-2.46Z"/><path class="c" d="M272.648,164.036a19.137,19.137,0,0,1-6.249,8.978,16.5,16.5,0,0,1-10.065,3.132,17.264,17.264,0,0,1-10.424-2.99,18.6,18.6,0,0,1-6.472-8.973c-.843-2.415-4.709-1.376-3.857,1.063,2.316,6.635,7.448,12.46,14.458,14.175,6.918,1.693,14.613.572,20.008-4.273a23.622,23.622,0,0,0,6.458-10.049c.828-2.443-3.034-3.492-3.857-1.063Z"/><path class="c" d="M266.869,156.468a3.245,3.245,0,0,1-1.305,2.624,3.046,3.046,0,0,1-2.066.494,3.1,3.1,0,0,1-1.785-5.457,3.149,3.149,0,0,1,4.027-.046A2.923,2.923,0,0,1,266.869,156.468Z"/><path class="c" d="M251.813,156.468a3.239,3.239,0,0,1-1.3,2.624,3.042,3.042,0,0,1-2.065.494,3.1,3.1,0,0,1-1.785-5.457,3.147,3.147,0,0,1,4.026-.046A2.923,2.923,0,0,1,251.813,156.468Z"/><path class="d" d="M43.479,52.461a23.567,23.567,0,0,0,.775,7.516,4.628,4.628,0,0,1,4.144-.728l2.253.737.425-.291A108.218,108.218,0,0,0,64.092,49.257c-.283,2-1.29,5.393-.022,5.044,5.3-1.393,10.371-4.2,13.437-8.588A45.442,45.442,0,0,0,80,53.328a24.318,24.318,0,0,0,4.774,6.4,4.354,4.354,0,0,1,4.422-.221c2.5-8.046.579-16.3-4.511-21.416A24.245,24.245,0,0,0,65.348,31.52c-6.134.588-12.167,2.812-16.3,7.381A22.2,22.2,0,0,0,43.479,52.461Z"/><path class="c" d="M75.652,46.566a44.976,44.976,0,0,0,2.425,7.357A24.377,24.377,0,0,0,82.391,60.2a2.016,2.016,0,0,0,2.829,0,2.043,2.043,0,0,0,0-2.828,19,19,0,0,1-2.189-2.843,21.15,21.15,0,0,1-1.5-2.629c-.021-.045-.148-.343-.046-.1.117.28-.079-.2-.081-.206q-.146-.372-.28-.747c-.2-.557-.387-1.119-.566-1.684q-.576-1.816-1.048-3.663a2,2,0,1,0-3.857,1.064Z"/><path class="c" d="M75.828,44.634a17.928,17.928,0,0,1-5.51,4.948A20.573,20.573,0,0,1,63.379,52.4h1.064q1.113,2.16,1,1.046c0-.168.008-.337.024-.5.025-.276.08-.551.129-.825.138-.776.3-1.546.422-2.325.287-1.877-1.793-3.448-3.342-1.946A96.785,96.785,0,0,1,50.067,57.968c-2.108,1.449-.11,4.917,2.019,3.454a102.922,102.922,0,0,0,13.42-10.75l-3.343-1.946c-.274,1.8-1.086,3.928-.59,5.742.775,2.839,3.947,1.575,5.848.872a24.652,24.652,0,0,0,11.861-8.687,2.017,2.017,0,0,0-.717-2.736,2.044,2.044,0,0,0-2.737.717Z"/><path class="c" d="M91.308,59.432a24.691,24.691,0,0,0-1.453-17.51A22.715,22.715,0,0,0,77.418,31.15c-10.714-4.122-24.705-.966-31.54,8.526a25.049,25.049,0,0,0-3.909,19.312c.481,2.526,4.337,1.456,3.857-1.063a21.078,21.078,0,0,1,2.45-14.614,19.62,19.62,0,0,1,11.315-8.626c9.027-2.806,20.554-.946,25.9,7.618a20.213,20.213,0,0,1,1.963,16.066c-.681,2.486,3.177,3.547,3.857,1.063Z"/><path class="c" d="M86.434,61.109c.159-.043.315-.073.475-.109-.461.1,0,.015.114.012.163,0,.324.01.487.018-.271-.013-.2-.034.031.015a4.762,4.762,0,0,1,.472.128c.193.062.3.127.054.006.146.072.292.145.432.229.066.04.473.351.13.062.125.105.246.212.361.329.076.077.355.459.108.1.078.114.153.229.221.349.045.076.086.154.124.233-.066-.174-.073-.2-.023-.061a7.521,7.521,0,0,1,.259.969c-.082-.418,0,.144,0,.2.007.187.006.374,0,.561,0,.09-.078.626-.009.216-.026.155-.057.31-.094.463-.043.184-.095.366-.154.546-.039.121-.142.4-.033.139a5.937,5.937,0,0,1-.537.984c-.009.014-.357.5-.131.208-.116.151-.243.3-.371.438a10.054,10.054,0,0,1-.754.749q-.18.16-.369.315c.271-.221-.158.113-.215.153a10.387,10.387,0,0,1-.983.6c-.167.089-.338.17-.508.253-.382.187.22-.079-.21.083a2.045,2.045,0,0,0-1.4,2.46,2.023,2.023,0,0,0,2.461,1.4c3.915-1.477,7.355-4.968,7.312-9.382a6.8,6.8,0,0,0-2.764-5.549,6.62,6.62,0,0,0-5.553-.976,2,2,0,1,0,1.063,3.857Z"/><path class="c" d="M48.93,57.32a6.616,6.616,0,0,0-5.576.85,6.844,6.844,0,0,0-2.883,5.492c-.182,4.423,3.228,7.97,7.076,9.561a2.006,2.006,0,0,0,2.461-1.4,2.063,2.063,0,0,0-1.4-2.46c.374.155-.176-.092-.2-.1q-.253-.127-.5-.27a10.474,10.474,0,0,1-.885-.576q-.166-.123.02.019c-.076-.061-.151-.122-.224-.186-.124-.1-.245-.212-.363-.322a11.314,11.314,0,0,1-.8-.839c-.393-.45.181.289-.156-.2-.108-.156-.214-.311-.313-.472q-.122-.2-.231-.406c-.044-.082-.086-.166-.125-.251q.095.245.018.046a6.65,6.65,0,0,1-.3-.994c-.01-.045-.085-.63-.049-.214-.016-.188-.031-.374-.035-.563s.011-.373.015-.56c.007-.374-.046.1.01-.111a7.757,7.757,0,0,1,.272-.967c-.153.375.068-.1.112-.175s.351-.469.065-.137c.107-.125.215-.246.334-.36.079-.076.464-.347.1-.1.113-.076.226-.152.344-.22.05-.029.516-.262.272-.153s.166-.054.219-.07c.157-.049.316-.083.475-.121.489-.118-.39,0,.113-.012.163,0,.324,0,.487,0,.418,0-.326-.108.112.008.158.042.315.077.471.124a2.02,2.02,0,0,0,2.461-1.4,2.042,2.042,0,0,0-1.4-2.46Z"/><path class="c" d="M83.724,70.776a19.142,19.142,0,0,1-6.249,8.979,16.5,16.5,0,0,1-10.066,3.131A17.256,17.256,0,0,1,56.986,79.9a18.6,18.6,0,0,1-6.473-8.973c-.843-2.415-4.708-1.376-3.857,1.063,2.317,6.636,7.448,12.461,14.459,14.176,6.917,1.692,14.613.571,20.008-4.273a23.634,23.634,0,0,0,6.458-10.05c.828-2.443-3.034-3.492-3.857-1.063Z"/><path class="c" d="M77.944,63.209a3.238,3.238,0,0,1-1.305,2.623,3.043,3.043,0,0,1-2.065.494,3.1,3.1,0,0,1-1.785-5.457,3.146,3.146,0,0,1,4.026-.045A2.921,2.921,0,0,1,77.944,63.209Z"/><path class="c" d="M62.889,63.209a3.245,3.245,0,0,1-1.3,2.623,3.046,3.046,0,0,1-2.066.494,3.1,3.1,0,0,1-1.785-5.457,3.147,3.147,0,0,1,4.027-.045A2.926,2.926,0,0,1,62.889,63.209Z"/><path class="c" d="M57.15,97.2c6.325,4.407,15.742,3.868,21.635-1.021a2.017,2.017,0,0,0,0-2.829,2.045,2.045,0,0,0-2.829,0c-4.57,3.792-12.024,3.715-16.787.4a2.02,2.02,0,0,0-2.737.718A2.041,2.041,0,0,0,57.15,97.2Z"/><path class="c" d="M100.629,101.893c-2.548-4.421-5.971-8.324-10.614-10.586-3.6-1.752-7.649-3.6-11.709-3.882a2.03,2.03,0,0,0-2,2L75.631,102.7c-.131,2.573,3.869,2.566,4,0l.675-13.278-2,2c.38.026-.147-.04.272.026.241.038.481.089.72.14.483.1.963.219,1.441.342.539.139,1.076.281,1.6.459A48.587,48.587,0,0,1,88,94.761a21.652,21.652,0,0,1,9.179,9.151c1.286,2.23,4.743.218,3.454-2.019Z"/><path class="c" d="M37.91,103.912a21.658,21.658,0,0,1,9.179-9.151,49.846,49.846,0,0,1,5.565-2.337c.522-.18,1.052-.324,1.586-.463.473-.123.946-.24,1.423-.343.242-.053.484-.1.728-.146q.168-.032.339-.057-.279.042.049.01l-2-2,.675,13.111c.132,2.561,4.133,2.577,4,0l-.675-13.111a2.024,2.024,0,0,0-2-2c-4.06.281-8.111,2.13-11.709,3.882C40.427,93.569,37,97.472,34.456,101.893c-1.288,2.235,2.167,4.251,3.454,2.019Z"/><path class="c" d="M57.67,83.777a20.362,20.362,0,0,1-.258,2.437l.072-.532a9.657,9.657,0,0,1-.455,2.312l.2-.478a2.3,2.3,0,0,1-.275.47l.312-.405a2.32,2.32,0,0,1-.377.364l.405-.312a3.357,3.357,0,0,1-.636.355l.478-.2c-.466.188-.953.328-1.429.489a2,2,0,1,0,1.063,3.857,9.593,9.593,0,0,0,2.543-1.045,4.364,4.364,0,0,0,1.8-2.926q.2-1.2.352-2.41a17.688,17.688,0,0,0,.2-1.974,2,2,0,0,0-4,0Z"/><path class="c" d="M72.919,84.2c.043.218.081.436.111.657l-.071-.532c.053.424.06.851.1,1.276.053.607.162,1.206.252,1.807a4.551,4.551,0,0,0,1.285,2.787,7.494,7.494,0,0,0,2.5,1.321c.529.2,1.06.406,1.585.62a2,2,0,0,0,1.541-.2,2,2,0,0,0,.717-2.737,2.34,2.34,0,0,0-1.2-.919c-.794-.323-1.6-.614-2.4-.935l.478.2a3.439,3.439,0,0,1-.433-.218c-.18-.109-.245-.258.127.118-.045-.046-.1-.085-.145-.131s-.091-.121-.126-.136c.04.017.315.466.165.2a3.243,3.243,0,0,1-.173-.337l.2.478a9.165,9.165,0,0,1-.409-2.081l.071.532c-.118-.949-.135-1.893-.321-2.837a2.012,2.012,0,0,0-2.46-1.4,2.052,2.052,0,0,0-1.4,2.461Z"/><path class="a" d="M173.084,150.441a22.293,22.293,0,0,0-6.752-7.816c-2.94-2.066-6.6-4.387-10.936-3.389-1.138,1.205-12.616,11.019-15.518,13.273-.209.163-.374.286-.487.364l-.191.132c-.077-.027-.155-.052-.155-.052a4.574,4.574,0,0,0-5.249,1.965,6.244,6.244,0,0,0,.217,6.053,9.862,9.862,0,0,0,5.226,4.214,21.527,21.527,0,0,0,4.273,7.346A17.588,17.588,0,0,0,150.3,177.3c.01.11.019.187.019.187,0,.424-.261,2.583-.355,3.088-.226,1.219-.147,2.313-1.845,2.926-.057.021-.288.1-.545.183l1.5,5.681a16.743,16.743,0,0,0,18.341-.431c.624-2.355,1.206-4.552,1.434-5.415-.551-.215-1.132-.441-1.192-.462-1.7-.613-1.631-1.7-1.845-2.926-.22-1.257-.061-1.479-.319-2.758,0,0,0-.053,0-.129a17.34,17.34,0,0,0,6.623-4.851,21.482,21.482,0,0,0,4.228-7.5A26.281,26.281,0,0,0,173.084,150.441Z"/><path class="c" d="M139.577,151.024a6.619,6.619,0,0,0-5.576.85,6.844,6.844,0,0,0-2.883,5.492c-.182,4.423,3.228,7.97,7.076,9.561a2.005,2.005,0,0,0,2.461-1.4,2.064,2.064,0,0,0-1.4-2.461c.374.155-.176-.091-.2-.1q-.253-.127-.5-.27a10.474,10.474,0,0,1-.885-.576q-.166-.123.02.019c-.076-.06-.151-.122-.224-.185-.124-.105-.245-.212-.363-.323a10.925,10.925,0,0,1-.8-.839c-.393-.45.181.289-.156-.2-.108-.155-.214-.311-.313-.472q-.122-.2-.231-.405c-.044-.083-.086-.166-.125-.251.063.162.069.178.018.045a6.615,6.615,0,0,1-.3-.994c-.01-.045-.085-.629-.049-.214-.016-.188-.031-.374-.035-.563s.011-.373.015-.56c.007-.374-.046.1.01-.111a7.805,7.805,0,0,1,.272-.967c-.153.375.068-.1.112-.175s.351-.468.064-.137c.108-.125.216-.246.335-.36.079-.076.464-.347.1-.1.113-.076.226-.151.344-.22.05-.029.516-.262.272-.153s.166-.054.219-.07c.157-.049.315-.083.474-.121.49-.118-.389,0,.114-.012.163,0,.324,0,.487,0,.418,0-.326-.109.112.008.157.041.315.076.471.123a2.018,2.018,0,0,0,2.46-1.4,2.042,2.042,0,0,0-1.4-2.461Z"/><path class="c" d="M174.371,164.48a19.142,19.142,0,0,1-6.249,8.979,16.5,16.5,0,0,1-10.066,3.131,17.267,17.267,0,0,1-10.424-2.989,18.614,18.614,0,0,1-6.472-8.974c-.843-2.414-4.708-1.376-3.857,1.064,2.316,6.635,7.448,12.46,14.458,14.175,6.918,1.692,14.614.571,20.008-4.273a23.627,23.627,0,0,0,6.459-10.05c.828-2.443-3.035-3.492-3.857-1.063Z"/><path class="c" d="M168.591,156.913a3.241,3.241,0,0,1-1.305,2.624,3.049,3.049,0,0,1-2.066.493,3.1,3.1,0,0,1-1.784-5.457,3.146,3.146,0,0,1,4.026-.045A2.921,2.921,0,0,1,168.591,156.913Z"/><path class="c" d="M153.536,156.913a3.247,3.247,0,0,1-1.305,2.624,3.049,3.049,0,0,1-2.066.493,3.1,3.1,0,0,1-1.785-5.457,3.147,3.147,0,0,1,4.027-.045A2.926,2.926,0,0,1,153.536,156.913Z"/><path class="c" d="M147.8,190.908c6.325,4.406,15.741,3.868,21.634-1.022a2.015,2.015,0,0,0,0-2.829,2.044,2.044,0,0,0-2.828,0c-4.57,3.793-12.025,3.715-16.788.4a2.017,2.017,0,0,0-2.736.717,2.042,2.042,0,0,0,.718,2.737Z"/><path class="d" d="M189.549,196.607c-2.914-5.119-5.777-7.456-8.33-9.035a54.435,54.435,0,0,0-8.167-3.555,27.447,27.447,0,0,0-4.1-.888l-3.578,13.513V198.5h24.264Z"/><path class="c" d="M191.276,195.6c-2.547-4.413-5.958-8.316-10.594-10.577-3.613-1.762-7.655-3.595-11.729-3.892a2.016,2.016,0,0,0-1.929,1.469l-3.578,13.512c-.659,2.491,3.2,3.554,3.857,1.064l3.578-13.513-1.928,1.468c3.136.228,6.788,1.921,9.71,3.346a21.728,21.728,0,0,1,9.159,9.141c1.287,2.229,4.745.217,3.454-2.018Z"/><path class="c" d="M148.317,177.482a20.367,20.367,0,0,1-.258,2.436l.072-.532a9.648,9.648,0,0,1-.455,2.312l.2-.478a2.3,2.3,0,0,1-.275.47l.312-.405a2.367,2.367,0,0,1-.377.365l.405-.313a3.357,3.357,0,0,1-.636.355l.478-.2c-.467.188-.953.328-1.429.49a2,2,0,1,0,1.063,3.857,9.609,9.609,0,0,0,2.543-1.046,4.362,4.362,0,0,0,1.805-2.926q.2-1.2.352-2.41a17.694,17.694,0,0,0,.2-1.973,2,2,0,1,0-4,0Z"/><path class="c" d="M163.566,177.9c.043.218.081.437.111.657l-.071-.532c.053.424.06.851.1,1.276.053.607.162,1.206.252,1.808a4.556,4.556,0,0,0,1.285,2.787,7.5,7.5,0,0,0,2.5,1.32c.528.206,1.059.407,1.585.621a2.005,2.005,0,0,0,1.541-.2,2,2,0,0,0,.717-2.736,2.335,2.335,0,0,0-1.2-.919c-.794-.324-1.6-.614-2.4-.936l.478.2a3.673,3.673,0,0,1-.434-.219c-.179-.109-.244-.258.128.118-.046-.046-.1-.085-.145-.131s-.091-.121-.127-.136c.041.018.316.466.166.2a3.146,3.146,0,0,1-.173-.337l.2.478a9.166,9.166,0,0,1-.408-2.08l.071.531c-.119-.949-.135-1.892-.321-2.836a2.011,2.011,0,0,0-2.46-1.4,2.05,2.05,0,0,0-1.4,2.46Z"/><path class="c" d="M151.295,135.373l.015.02-.312-.405a11.571,11.571,0,0,1,.991,1.774q.643,1.291,1.208,2.621l-.2-.477c.168.4.33.8.472,1.208a2.133,2.133,0,0,0,.919,1.195,2,2,0,0,0,2.938-2.259,35.692,35.692,0,0,0-1.562-3.652,15.437,15.437,0,0,0-1.639-2.854,2,2,0,0,0-1.414-.586,2.032,2.032,0,0,0-1.414.586,2.012,2.012,0,0,0-.586,1.414l.071.532a2,2,0,0,0,.515.883Z"/><path class="c" d="M153.981,137.822c-1.663,1.741-3.623,3.256-5.444,4.825-2.631,2.266-5.275,4.518-7.951,6.73-.526.434-1.052.867-1.584,1.293-.2.158-.916.577-.238.194a4.7,4.7,0,0,0-.382.282,2.053,2.053,0,0,0-.718,2.736,2.019,2.019,0,0,0,2.737.718c2.146-1.5,4.116-3.3,6.111-4.987q4.02-3.392,7.979-6.854c.781-.686,1.6-1.356,2.319-2.109,1.778-1.861-1.046-4.694-2.829-2.828Z"/><path class="c" d="M155.927,141.164c3.6-.741,6.966,1.352,9.732,3.43a21.911,21.911,0,0,1,6.616,8.718,22.3,22.3,0,0,1-1.523,21.578c-1.41,2.162,2.052,4.169,3.454,2.019a25.706,25.706,0,0,0,3.4-20.315,27.4,27.4,0,0,0-11.478-16.527c-3.414-2.255-7.156-3.605-11.263-2.76-2.52.519-1.453,4.375,1.063,3.857Z"/><path class="c" d="M147.087,125.182c-8.476,2.427-12.972,10.256-14.574,18.449-.267,1.367-.459,2.749-.618,4.133-.043.365-.091.731-.123,1.1-.015.172-.087.5.038-.279-.056.346-.1.695-.148,1.043-.118.926-.183,1.855-.24,2.787a46.137,46.137,0,0,1-2.095,10.3,28.821,28.821,0,0,0-1.561,9.731c.186,3.332,1.175,6.974,3.733,9.279a17.527,17.527,0,0,0,9.3,4.068,2.07,2.07,0,0,0,2.46-1.4,2.013,2.013,0,0,0-1.4-2.46,14.714,14.714,0,0,1-7.277-2.814c-1.961-1.585-2.686-4.245-2.822-6.676a25.467,25.467,0,0,1,1.418-8.668,48.479,48.479,0,0,0,2.113-9.5c.17-1.952.3-3.9.523-5.843.048-.423.1-.846.147-1.27a2.957,2.957,0,0,1,.052-.388c.047-.316.094-.632.147-.947a29.766,29.766,0,0,1,2.8-8.951,15.041,15.041,0,0,1,9.186-7.837c2.47-.708,1.42-4.568-1.063-3.857Z"/><path class="c" d="M148.15,129.039c2.9-.981,5.853-2.039,8.956-1.945a24.475,24.475,0,0,1,7.3,1.14,19.933,19.933,0,0,1,11.421,10,43.56,43.56,0,0,1,2.989,8.4,81.978,81.978,0,0,1,1.928,9c.472,2.989.783,6.008.955,9.029a22.91,22.91,0,0,1-.837,8.816,11.452,11.452,0,0,1-4.937,6.1,12.3,12.3,0,0,1-6.664,1.788c-2.566.1-2.579,4.1,0,4a16.955,16.955,0,0,0,7.59-1.683,16.26,16.26,0,0,0,6.192-5.521c3.615-5.76,2.892-12.989,2.131-19.422a78.921,78.921,0,0,0-4.816-20.133,23.937,23.937,0,0,0-12.239-13.193,27.2,27.2,0,0,0-9.527-2.237c-4.056-.269-7.693.709-11.505,2-2.426.82-1.385,4.685,1.063,3.857Z"/><path class="c" d="M169.128,185.188a1.075,1.075,0,0,1-.649-.155,3.72,3.72,0,0,0,.363.232c.285.174-.375-.317-.124-.1.074.065.152.126.227.19.169.145.333.295.5.448a32,32,0,0,1,2.334,2.495c.4.465.783.94,1.165,1.418.276.345-.032-.05.056.069s.178.234.266.352q.254.341.5.687c.291.411.573.828.833,1.259.107.179.212.36.309.545.042.082.08.165.122.246.019.038.037.077.054.116a1.362,1.362,0,0,1-.186-.785l.273-1.009c.212-.415.352-.41.06-.15-.138.123-.284.238-.428.355-.47.381-.95.751-1.428,1.124-.938.732-1.9,1.448-2.78,2.255a2,2,0,0,0,2.829,2.829c1.09-1,2.3-1.881,3.47-2.795a13.951,13.951,0,0,0,1.287-1.049,2.348,2.348,0,0,0,.285-2.949A21.018,21.018,0,0,0,176,187.187a41.4,41.4,0,0,0-3.148-3.637c-1-1.022-2.2-2.282-3.723-2.362a2.014,2.014,0,0,0-2,2,2.045,2.045,0,0,0,2,2Z"/><path class="d" d="M151,196.642l-3.578-13.513a27.447,27.447,0,0,0-4.1.888,54.49,54.49,0,0,0-8.168,3.555c-2.553,1.579-5.416,3.916-8.329,9.035v1.929h24.328Z"/><path class="c" d="M128.557,197.616a21.734,21.734,0,0,1,9.159-9.141c2.921-1.426,6.575-3.118,9.71-3.346l-1.929-1.468,3.578,13.513c.659,2.486,4.518,1.431,3.858-1.064L149.354,182.6a2.021,2.021,0,0,0-1.928-1.469c-4.073.3-8.117,2.129-11.729,3.892-4.636,2.263-8.046,6.163-10.594,10.577-1.29,2.233,2.165,4.249,3.454,2.018Z"/><path class="c" d="M147.251,181.188c-1.385.072-2.479,1.116-3.435,2.02a37.834,37.834,0,0,0-3.209,3.489,24.473,24.473,0,0,0-2.708,3.764c-.556,1.03-.844,2.147.059,3.1a10.111,10.111,0,0,0,1.088.913c1.309,1.033,2.687,2.008,3.914,3.14a2.044,2.044,0,0,0,2.829,0,2.023,2.023,0,0,0,0-2.829c-.9-.828-1.892-1.56-2.855-2.311-.48-.374-.961-.746-1.435-1.128-.169-.135-.34-.27-.5-.414-.266-.238-.17-.308.068.157l.273,1.01a1.371,1.371,0,0,1-.185.785l.035-.076c.043-.079.078-.162.12-.242.095-.182.2-.36.307-.536.26-.425.544-.836.837-1.239.166-.228.336-.454.507-.677-.306.4-.021.031.05-.059l.282-.351q.6-.743,1.238-1.457a32.767,32.767,0,0,1,2.34-2.418c.166-.152.335-.3.508-.447.077-.065.159-.125.234-.192.166-.147-.451.306-.116.1a4.383,4.383,0,0,0,.374-.238c.255-.2-.416.153-.272.109.21-.065.322,0-.346.033a2,2,0,0,0,0-4Z"/><path class="c" d="M238.347,191.764c-.647-.579-1.3-1.148-1.952-1.726-.3-.264-.592-.528-.88-.8-.111-.1-.216-.219-.33-.319-.038-.038-.076-.078-.112-.118a1.688,1.688,0,0,1,.419.746v1.063c-.213.517-.017.066.042-.05.082-.159.17-.316.26-.471.215-.371.445-.733.682-1.09.488-.735,1-1.454,1.551-2.145.6-.758,1.219-1.5,1.888-2.2.272-.284.56-.547.848-.815s-.158.111,0,0c.373-.255-.4.058-.534.071L238.3,182.44a36.318,36.318,0,0,0,1.524,3.5q.8,1.764,1.586,3.535c1.134,2.546,2.259,5.1,3.422,7.629a2.016,2.016,0,0,0,2.736.718,2.047,2.047,0,0,0,.718-2.737c-1.133-2.468-2.23-4.953-3.335-7.434q-.762-1.71-1.532-3.418c-.453-1-1-2.061-1.261-2.853a2.035,2.035,0,0,0-1.929-1.469c-1.73.176-2.959,1.651-4.029,2.9a38.173,38.173,0,0,0-3.658,4.923,4.406,4.406,0,0,0-.947,2.618,2.741,2.741,0,0,0,.993,1.634c.945.9,1.952,1.743,2.927,2.615a2.047,2.047,0,0,0,2.828,0,2.02,2.02,0,0,0,0-2.829Z"/><path class="d" d="M294.015,196.228a11.866,11.866,0,0,0-3.37-3.8c-.66-.53-7.7-4.09-14.17-7.09-1.46-1.84-2.98-3.43-3.54-3.43a12.965,12.965,0,0,1-.64,1.54c-1.27,2.7-3.93,8.814-5.69,12.644l0,1.814,27.519.223Z"/><path class="c" d="M295.741,195.219a13.46,13.46,0,0,0-4.1-4.53,22.8,22.8,0,0,0-2.574-1.426c-3.811-1.978-7.684-3.843-11.579-5.652a2.058,2.058,0,0,0-2.736.718,2.016,2.016,0,0,0,.717,2.736c3.766,1.749,7.509,3.554,11.2,5.455.935.482,1.9.942,2.789,1.511.05.032.1.065.148.1-.3-.215.168.157.256.233A15.54,15.54,0,0,1,291,195.442a7.33,7.33,0,0,1,1.287,1.8c1.221,2.267,4.676.249,3.453-2.019Z"/><path class="c" d="M277.649,194.593c.959-.858,1.946-1.686,2.879-2.571a3.171,3.171,0,0,0,1-1.412c.274-1.015-.4-2.049-.911-2.884a38.012,38.012,0,0,0-3.575-4.826c-1.088-1.274-2.343-2.812-4.112-2.992a2.02,2.02,0,0,0-1.929,1.469c-.045.134-.093.267-.142.4s-.045.117.006,0l-.093.211c-.123.272-.252.542-.378.813-.209.45-.414.9-.619,1.353q-.79,1.745-1.567,3.5c-1.105,2.481-2.2,4.966-3.335,7.434a2.06,2.06,0,0,0,.717,2.737,2.017,2.017,0,0,0,2.736-.718c1.163-2.533,2.288-5.083,3.423-7.629.514-1.154,1.028-2.307,1.551-3.457a37.332,37.332,0,0,0,1.558-3.575l-1.928,1.468c-.019,0-.9-.28-.588-.106.357.2-.307-.3.058.036.288.268.575.531.847.815.669.7,1.289,1.443,1.889,2.2.547.691,1.063,1.41,1.55,2.145.237.357.468.719.682,1.09.076.131.15.262.22.4.06.113.3.664.083.125v-1.063a1.678,1.678,0,0,1,.419-.746c-.037.04-.074.08-.112.118-.115.1-.219.215-.33.319-.289.272-.585.536-.881.8-.648.578-1.3,1.147-1.952,1.726a2,2,0,0,0,2.829,2.829Z"/></svg>